<svg id="Livello_1" data-name="Livello 1" xmlns="http://www.w3.org/2000/svg" viewBox="0 0 449.16 526.98">
  <defs>
    <style>
      .cls-1 {
        fill: #fff;
      }

      .cls-2 {
        fill: none;
      }

      .cls-3 {
        fill: #cc1417;
      }
    </style>
  </defs>
  <title>FUERTE</title>
  <g>
    <path class="cls-1" d="M106.61,455.41c0-13.54.78-24.57,2.86-35.43a150.51,150.51,0,0,1,11.17-35.73c1.69-3.6,3.09-7.35,5-10.8,3-5.37,6.34-10.59,9.69-15.77,2.2-3.39,4.63-6.63,7.07-9.85,1.37-1.81,2.95-3.47,4.5-5.15,2.84-3.08,5.63-6.21,8.6-9.16,4-4,8-8,12.34-11.64A203.31,203.31,0,0,1,187,307.34c5.36-3.48,10.61-7.14,16-10.62,2.15-1.41,4.46-2.58,6.72-3.82a276.27,276.27,0,0,1,26.48-12.57c8.55-3.52,17.38-5.93,26.28-8.26a214.2,214.2,0,0,1,52-6.53,154.25,154.25,0,0,1,43,5.56,123.66,123.66,0,0,1,21.61,7.66c6.33,3.1,12.68,6.19,18.41,10.38,3.27,2.39,6.69,4.56,10,6.87,1,.71,1.92,1.58,2.91,2.33a154.65,154.65,0,0,1,15.4,13.87c2.14,2.12,4,4.52,6,6.78,6.5,7.35,11.92,15.47,17.29,23.65a160.75,160.75,0,0,1,10.59,19.07c2.6,5.43,4.56,11.17,6.84,16.75a176.41,176.41,0,0,1,8.83,30c1.2,5.61,2.09,11.28,3.18,16.91.5,2.61,1.21,5.17,1.7,7.77,1.36,7.23,2.57,14.49,4,21.72A129.36,129.36,0,0,1,486.1,485a90.57,90.57,0,0,1-1.25,12.3,139.77,139.77,0,0,1-5.93,23.29,79,79,0,0,1-12.09,21.69c-.95,1.21-1.63,2.63-2.59,3.84-3.39,4.26-6.79,8.52-10.29,12.68s-6.91,8-10.45,12c-1.42,1.59-3.06,3-4.53,4.51-2.6,2.7-5.15,5.44-7.72,8.17a5.29,5.29,0,0,1-.61.64c-4.91,3.65-8.8,8.38-13.37,12.38-4,3.49-8.21,6.71-12.41,9.93-2.56,2-5.36,3.64-7.92,5.61a109.09,109.09,0,0,1-18.17,10.83c-4.66,2.32-9.58,4.13-14.39,6.15-11.6,4.86-23.92,6.55-36.24,8.24a216.8,216.8,0,0,1-24.41,2.07,137.68,137.68,0,0,1-47.14-7.1,187.4,187.4,0,0,1-23.42-9.64c-4.68-2.31-9.12-5.08-13.74-7.52a84.12,84.12,0,0,0-8.18-3.78,167.2,167.2,0,0,1-22.75-10.69A192.07,192.07,0,0,1,163,582.42a153.46,153.46,0,0,1-17.82-17.69,131.77,131.77,0,0,1-13.42-18.29,177,177,0,0,1-13.23-27.37c-3.89-9.85-6.25-20.06-8.4-30.38A183.76,183.76,0,0,1,106.61,455.41Zm350.45-22.13c.23-17.86-.92-35.61-4.69-53.12-.18-.86-.18-1.77-.39-2.62a31.59,31.59,0,0,0-1.29-4.18c-.57-1.35-1.4-2.58-2.07-3.88-5.24-10.24-11.07-20.1-18.6-28.87-1.58-1.83-3.08-3.76-4.82-5.44a119,119,0,0,0-13.68-11.46c-1.13-.81-2.13-1.81-3.28-2.58a188.27,188.27,0,0,0-24.05-13.47c-4.1-2-8.19-4-12.42-5.63a131.16,131.16,0,0,0-30.41-8.14,273.71,273.71,0,0,0-54.66-1.65,381.66,381.66,0,0,0-41.4,5.09,150.44,150.44,0,0,0-36,10.88,113.09,113.09,0,0,0-13.66,7.16c-4.36,2.73-8.82,5.3-12.76,8.63a84.61,84.61,0,0,0-7,6.06A151.66,151.66,0,0,0,165.42,342a137.59,137.59,0,0,0-9.3,13.67c-2.91,4.93-5.4,10.11-7.89,15.27-1.79,3.7-3.43,7.49-4.88,11.33a186,186,0,0,0-8.4,30.86,168.56,168.56,0,0,0-2.74,28.1,185.16,185.16,0,0,0,3.46,40.61c2.24,11.28,4.64,22.47,9,33.17a205.61,205.61,0,0,0,8.55,19.35,153.41,153.41,0,0,0,9.32,16c2.94,4.22,5.77,8.53,8.86,12.63A174.74,174.74,0,0,0,188.1,582c1.93,1.91,3.77,3.93,5.81,5.72,2.64,2.34,5.43,4.51,8.18,6.73,6.32,5.1,12.9,9.66,20.79,12.18s15.92,5.31,24.15,7a169,169,0,0,0,39,3.65c4.33-.15,8.67-.46,13-.76,9.84-.69,19.64-1.64,29.25-4.06,7-1.77,14-3.3,21-5.06,7.78-2,15.19-5,22.67-7.89A84.54,84.54,0,0,0,384.77,593c5.78-3.4,11-7.64,16.2-11.81a118.52,118.52,0,0,0,14-13.72,127.59,127.59,0,0,0,10.56-13.28A131.33,131.33,0,0,0,434.46,539a189.13,189.13,0,0,0,16.9-49.32A287.84,287.84,0,0,0,457.06,433.28ZM252.76,623l-.09.28a5.12,5.12,0,0,0,.73.39,160.37,160.37,0,0,0,22.7,6.36,125.54,125.54,0,0,0,27.92,2,210.59,210.59,0,0,0,32.48-3.3c11.08-2,22.09-4.25,32.32-9.22,4-1.95,8.17-3.75,12.1-5.91a167.68,167.68,0,0,0,21.62-14.43c1.92-1.48,3.84-3,5.68-4.54,3-2.53,6-4.95,8.78-7.72a158.07,158.07,0,0,0,15.65-17.65c3.29-4.5,7-8.75,10.08-13.37A152.22,152.22,0,0,0,451.67,541c3.09-5.93,5.81-12.06,8.49-18.19a165.25,165.25,0,0,0,7.42-21.92,152.67,152.67,0,0,0,5.08-32.45,213.67,213.67,0,0,0-1.37-36.82c-.62-5.26-1-10.57-2.93-15.59-1-2.54-1.95-5.07-2.94-7.6-.16-.39-.39-.76-.58-1.14a8,8,0,0,0,0,2.28c.41,5.58,1.05,11.15,1.15,16.74.15,8.17.11,16.35-.21,24.51a230.22,230.22,0,0,1-7.07,50.42A160.76,160.76,0,0,1,450,526.89c-2.71,6-5.27,12-8.49,17.69a148.54,148.54,0,0,1-12.8,19.28,162.13,162.13,0,0,1-15.21,16.24c-6.66,6.4-14.34,11.48-21.92,16.66a85.62,85.62,0,0,1-16.41,8.56A228.85,228.85,0,0,1,346,615.21c-8.84,2.25-17.69,4.52-26.64,6.2-7.29,1.37-14.73,2-22.13,2.73a165.8,165.8,0,0,1-36.59-.16ZM150.15,351.61l-.37-.27c-2.47,3.28-5.05,6.47-7.37,9.85a117.91,117.91,0,0,0-7.53,11.94c-3.21,6.11-6.14,12.38-8.87,18.72-4,9.37-6.4,19.27-8.27,29.26a153.33,153.33,0,0,0-2.55,27.46,196.85,196.85,0,0,0,3.21,35.34,161.19,161.19,0,0,0,11.52,38.36c2.21,4.89,4.49,9.75,7,14.51a84.65,84.65,0,0,0,6.25,10.39c3.3,4.58,6.86,9,10.54,13.29a124.48,124.48,0,0,0,10,10.57c4.2,3.89,8.72,7.44,13.15,11.08a37.26,37.26,0,0,0,3.51,2.31c-2.47-3.2-5.08-6.17-7.65-9.17-1.58-1.85-3.17-3.68-4.64-5.61-2.31-3-4.6-6.11-6.76-9.26-3.36-4.91-6.88-9.74-9.84-14.89a154.24,154.24,0,0,1-10.23-20.75c-2.64-6.78-5.34-13.57-7.37-20.54a219,219,0,0,1-5-21.94c-1.34-7.38-2.47-14.83-3.07-22.3a182.24,182.24,0,0,1,1.2-40.08,184.41,184.41,0,0,1,9.93-40.2c2-5.15,4.1-10.25,6.45-15.23C145.39,360.07,147.86,355.89,150.15,351.61ZM426.66,325.7c-.07-.35-.05-.5-.12-.59-.21-.3-.45-.59-.69-.87a147,147,0,0,0-25.35-23.49c-1.53-1.13-3.22-2.06-4.75-3.2a106.62,106.62,0,0,0-17.21-10.25,128.82,128.82,0,0,0-31.75-10.5A162.2,162.2,0,0,0,309,273.54c-16.15.65-32.13,2.55-47.74,6.9-6.31,1.76-12.61,3.53-18.79,5.67-4.49,1.56-8.78,3.71-13.16,5.61-.47.21-.91.48-1.37.72a5.65,5.65,0,0,0,2-.17c6.25-1.36,12.46-3,18.77-4Q262.85,286,277,284.6a269.8,269.8,0,0,1,45.21-1,195.64,195.64,0,0,1,28.25,3.44A139.35,139.35,0,0,1,385,299c5.3,2.72,10.61,5.4,15.84,8.24,3.3,1.79,6.5,3.76,9.65,5.8,2.39,1.56,4.66,3.33,6.91,5.09,2,1.54,3.84,3.21,5.76,4.8C424.26,323.81,425.4,324.69,426.66,325.7Zm31.11,219.57c15.71-18.16,21.43-39.75,21.77-63.17C476.22,504.5,468.13,525.28,457.77,545.27Z" transform="translate(-75.93 -167.22)"/>
    <path class="cls-2" d="M457.06,433.28a287.84,287.84,0,0,1-5.7,56.4A189.13,189.13,0,0,1,434.46,539a131.33,131.33,0,0,1-8.93,15.19A127.59,127.59,0,0,1,415,567.47a118.52,118.52,0,0,1-14,13.72c-5.22,4.17-10.42,8.41-16.2,11.81A84.54,84.54,0,0,1,372,599.49c-7.48,2.86-14.89,5.93-22.67,7.89-7,1.76-14,3.29-21,5.06-9.61,2.42-19.41,3.37-29.25,4.06-4.33.3-8.67.61-13,.76a169,169,0,0,1-39-3.65c-8.23-1.65-16.16-4.42-24.15-7s-14.47-7.08-20.79-12.18c-2.75-2.22-5.54-4.39-8.18-6.73-2-1.79-3.88-3.81-5.81-5.72A174.74,174.74,0,0,1,171.41,563c-3.09-4.1-5.92-8.41-8.86-12.63a153.41,153.41,0,0,1-9.32-16A205.61,205.61,0,0,1,144.68,515c-4.37-10.7-6.77-21.89-9-33.17a185.16,185.16,0,0,1-3.46-40.61,168.56,168.56,0,0,1,2.74-28.1,186,186,0,0,1,8.4-30.86c1.45-3.84,3.09-7.63,4.88-11.33,2.49-5.16,5-10.34,7.89-15.27a137.59,137.59,0,0,1,9.3-13.67,151.66,151.66,0,0,1,10.46-11.92,84.61,84.61,0,0,1,7-6.06c3.94-3.33,8.4-5.9,12.76-8.63a113.09,113.09,0,0,1,13.66-7.16,150.44,150.44,0,0,1,36-10.88,381.66,381.66,0,0,1,41.4-5.09,273.71,273.71,0,0,1,54.66,1.65A131.16,131.16,0,0,1,371.77,302c4.23,1.66,8.32,3.68,12.42,5.63a188.27,188.27,0,0,1,24.05,13.47c1.15.77,2.15,1.77,3.28,2.58a119,119,0,0,1,13.68,11.46c1.74,1.68,3.24,3.61,4.82,5.44,7.53,8.77,13.36,18.63,18.6,28.87.67,1.3,1.5,2.53,2.07,3.88a31.59,31.59,0,0,1,1.29,4.18c.21.85.21,1.76.39,2.62C456.14,397.67,457.29,415.42,457.06,433.28ZM250.12,323.35a7.62,7.62,0,0,0-5.45,6.11c-.54,2.8-.65,5.69-.95,8.54-.16,1.46-.2,2.94-.47,4.38-.86,4.55-1.84,9.08-2.71,13.62-.52,2.66-1.33,5.16-3.48,7-4.14,3.48-8.56,6.45-13.91,7.82-7.8,2-15.8,2.51-23.74,3.51-6.78.85-13.57,1.65-20.31,2.77a44.6,44.6,0,0,0-13.76,4.52,19.61,19.61,0,0,0-7.21,6,15.3,15.3,0,0,0-.85,1.75c1.15.16,2,.35,2.85.38a43.31,43.31,0,0,0,11.55-1.58c11.28-2.7,22.52-5.54,33.78-8.33,8-2,16-4,24.15-4.93a23.07,23.07,0,0,1,5.93,0c2.43.36,3,1.71,1.64,3.76a16.29,16.29,0,0,1-3.12,3.69c-4.07,3.39-8.26,6.63-12.41,9.93-.61.49-1.27.93-1.91,1.4,2.88,3.6,5.19,3.7,12.48.78a8.35,8.35,0,0,1-1.44,1.47,28.29,28.29,0,0,1-8.35,4.39c-6.09,2.2-12.45,3.42-18.74,4.87-5.88,1.37-11.73,2.87-16.83,6.29-3.42,2.29-6.77,4.69-10.11,7.11a34.24,34.24,0,0,0-2.9,2.63c2.59,6.31,5.1,12.42,7.67,18.66,2.84-.63,5.54-1.25,8.26-1.82a220.9,220.9,0,0,1,33.54-4.92,58.62,58.62,0,0,1,8.37.36,5.3,5.3,0,0,1,3.79,1.62c-.87,2-1.69,4-2.66,6-1.45,2.89-3.07,5.7-4.5,8.6-.54,1.09-1.21,2.22-.89,3.59a14.7,14.7,0,0,1,6,5.41c2,3.48,1.22,6.61-2.25,8.65-.67.39-1.37.74-2.22,1.19a10.35,10.35,0,0,1,4.49,5.81,41.29,41.29,0,0,1,1.41,5.32c.4,1.93.62,3.89.91,5.83,1.07-5.4,1.57-10.9,5.15-15.72,1.79,5.66,2.72,11.09,1.08,16.72.53.2.86.34,1.2.44,3.14,1,6.31,2,9.43,3,4.47,1.53,6.54,4.82,6.51,9.44,0,2.49-.19,5-.44,7.48a55.34,55.34,0,0,1-4.8,16.9,3.42,3.42,0,0,1-2.42,2.42l-1.36-3.63A77.73,77.73,0,0,1,244,527.8a12.92,12.92,0,0,1-7.59,2.42l-1.06-26.58a17.45,17.45,0,0,0-1,4.11,81.57,81.57,0,0,1-4.8,18.76c-1,2.46-2.21,4.8-4.62,6.41,1.23,1.91,2.54,3.66,4.76,4.11,2,.4,2.6,1.62,2.9,3.34a44.76,44.76,0,0,1,.69,11.21,81.1,81.1,0,0,0-.2,8.82,21.06,21.06,0,0,0,.92,5,2.22,2.22,0,0,0,2.32,1.92c-.15-2.64-.3-5.2-.42-7.76-.24-4.85-.73-9.7-.64-14.54.12-6,3.19-10.26,8.85-12.52.75-.3,1.5-.59,2.28-.82q4.33-1.26,8.68-2.47a17.89,17.89,0,0,1,1.82-.29c.17.7.29,1.26.45,1.8.6,2,.92,4.22,1.89,6.08a33.14,33.14,0,0,1,3.35,15.59c0,3.46-.28,6.93-.23,10.38a96.84,96.84,0,0,0,.62,10.78c.84,6.57,5,11.31,9.37,15.86a3.81,3.81,0,0,0,.89.64c1.36.77,2.41.55,3.14-.83.54-1,.86-2.18,1.31-3.27a38,38,0,0,1,1.72-4,3.71,3.71,0,0,1,3.89-2.22c.18,1,.36,2,.55,3a41,41,0,0,0,4.23,12.71,15.33,15.33,0,0,0,2.68,3.47c1.69,1.6,3.55,1.43,4.93-.43a11.1,11.1,0,0,0,1.82-3.49c.86-3.19,1.5-6.44,2.24-9.66.1-.45.25-.89.49-1.76,1.11,2.63,1.91,5,4.09,6.35a11.46,11.46,0,0,0,2.93-5.87,47.61,47.61,0,0,0,.65-15.38c-.78-8.36-1.85-16.68-2.69-25-.42-4.17-.9-8.37-.16-12.55.7-4,1.56-7.94,2.33-11.9a3.61,3.61,0,0,1,3-3.07c1.93-.43,3.86-.93,5.75-1.51,4.34-1.35,8.61-3,13-4.1,6-1.53,12-2.65,18.05-4A37.81,37.81,0,0,0,359,501.9a11.48,11.48,0,0,0,3.68-3.19c-.94.21-1.51.29-2.06.46-3.79,1.17-7.57,2.34-11.35,3.54-10.7,3.41-21.34,7.06-32.59,8.36a59.45,59.45,0,0,1-10.5.22,2.74,2.74,0,0,1-.09-.6,3.55,3.55,0,0,1,.17-.64c1.12-3.5,3.57-5.85,6.63-7.66a49.63,49.63,0,0,1,11-4.43c4.48-1.39,9-2.71,13.41-4.31,3.54-1.27,6.58-3.32,7.72-7.34,1.05.27,2,.49,2.88.74,3.32.91,4,.68,6-2l2.88-3.95c3.36,3.05,7,3.13,10.9,2a30.9,30.9,0,0,0,8.13-3.89,62.75,62.75,0,0,0,17.43-17.32A37,37,0,0,0,399,449.5c1.52-6.48-.47-11.09-6.34-14.2a37.57,37.57,0,0,0-6.5-2.69,107.86,107.86,0,0,0-34.55-4.87,155.06,155.06,0,0,0-19.14,1.36c-4.25.66-8.32,1.87-11.78,4.6a6.29,6.29,0,0,1-1.13.52c.2-2.49.31-4.69.57-6.88a38.33,38.33,0,0,1,8.48-20.51,43.85,43.85,0,0,1,15.62-11.68c6-2.73,12.18-5.11,18.36-7.43a122.83,122.83,0,0,1,22.19-6.44c9.11-1.57,18.25-3.07,27.32-4.86,5.25-1,10.41-2.53,15.58-3.9a11.12,11.12,0,0,0,3-1.38c1.14-.73,1.1-1.5,0-2.2a7,7,0,0,0-1.81-.79c-1.76-.49-3.55-.92-5.33-1.36-2.63-.66-5.27-1.29-7.9-2a3,3,0,0,1-1.49-.87c-.31-.37-.28-1-.43-1.65-3.92.39-7.8.73-11.67,1.16-5.77.64-11.53,1.35-17.29,2l-16.21,1.93c-5.69.68-11.38,1.38-17.07,2-4.53.53-9.06,1-13.59,1.5-5.12.54-10.23,1.12-15.36,1.57-5.35.47-10.7.88-16.07,1.14a39.42,39.42,0,0,1-8.13-.29c-1.68-.27-3.32-.25-5-.38a92.54,92.54,0,0,1-9.41-1,21.8,21.8,0,0,1-10.71-4.88,9.87,9.87,0,0,1-2.86-3.75c.8-.23,1.36-.43,1.93-.54,7.87-1.49,15.73-3,23.6-4.44,12.2-2.25,24.44-4.31,36.61-6.72a186.25,186.25,0,0,0,33.17-9.64c1.48-.59,2.94-1.22,4.41-1.84a12.21,12.21,0,0,0-4.11.18c-13.93,2.63-27.88,5.15-41.77,7.95-24.75,5-49.47,10.15-74.21,15.23-1.89.39-3.81.67-6,1C245.86,350.74,245.9,337,250.12,323.35ZM186.37,405.6c2.89-.1,13-3.58,15.81-5.3a8.15,8.15,0,0,0-8.09-1.22C190.9,400.28,188.72,402.74,186.37,405.6Zm30.79-12.35-.26-.47-10.55,5.72c1.23,1.38,2.38.84,3.38.39A23.08,23.08,0,0,0,217.16,393.25Zm83.32-21.94c3.3,1.73,8.65.58,11.52-2.49ZM249.57,513.19c-3.39,1.66-3.56,2.72-.9,5a9.51,9.51,0,0,0,.9.57Zm-55.63-63.84c.36-2.6.21-3.05-1.44-4.46-1,.75-1.73,1.68-1.33,3S192.62,449.38,193.94,449.35Zm50.21,50c2.9,2.34,4.28,2.08,5.1-.75Zm52.78-127c.38-1.57.76-3.13,1.22-5C295.68,369.39,295.4,370.35,296.93,372.43ZM235.62,492.82l-.18,0v4.79h.18Z" transform="translate(-75.93 -167.22)"/>
    <path class="cls-2" d="M252.76,623l7.85.94a165.8,165.8,0,0,0,36.59.16c7.4-.74,14.84-1.36,22.13-2.73,8.95-1.68,17.8-3.95,26.64-6.2a228.85,228.85,0,0,0,29.19-9.89,85.62,85.62,0,0,0,16.41-8.56c7.58-5.18,15.26-10.26,21.92-16.66a162.13,162.13,0,0,0,15.21-16.24,148.54,148.54,0,0,0,12.8-19.28c3.22-5.72,5.78-11.73,8.49-17.69a160.76,160.76,0,0,0,8.68-25.66,230.22,230.22,0,0,0,7.07-50.42c.32-8.16.36-16.34.21-24.51-.1-5.59-.74-11.16-1.15-16.74a8,8,0,0,1,0-2.28c.19.38.42.75.58,1.14,1,2.53,2,5.06,2.94,7.6,1.89,5,2.31,10.33,2.93,15.59a213.67,213.67,0,0,1,1.37,36.82,152.67,152.67,0,0,1-5.08,32.45,165.25,165.25,0,0,1-7.42,21.92c-2.68,6.13-5.4,12.26-8.49,18.19a152.22,152.22,0,0,1-8.94,14.93c-3.12,4.62-6.79,8.87-10.08,13.37A158.07,158.07,0,0,1,417,586.94c-2.73,2.77-5.81,5.19-8.78,7.72-1.84,1.57-3.76,3.06-5.68,4.54a167.68,167.68,0,0,1-21.62,14.43c-3.93,2.16-8.06,4-12.1,5.91-10.23,5-21.24,7.2-32.32,9.22a210.59,210.59,0,0,1-32.48,3.3,125.54,125.54,0,0,1-27.92-2,160.37,160.37,0,0,1-22.7-6.36,5.12,5.12,0,0,1-.73-.39Z" transform="translate(-75.93 -167.22)"/>
    <path class="cls-2" d="M150.15,351.61c-2.29,4.28-4.76,8.46-6.82,12.84-2.35,5-4.48,10.08-6.45,15.23a184.41,184.41,0,0,0-9.93,40.2,182.24,182.24,0,0,0-1.2,40.08c.6,7.47,1.73,14.92,3.07,22.3a219,219,0,0,0,5,21.94c2,7,4.73,13.76,7.37,20.54a154.24,154.24,0,0,0,10.23,20.75c3,5.15,6.48,10,9.84,14.89,2.16,3.15,4.45,6.22,6.76,9.26,1.47,1.93,3.06,3.76,4.64,5.61,2.57,3,5.18,6,7.65,9.17a37.26,37.26,0,0,1-3.51-2.31c-4.43-3.64-9-7.19-13.15-11.08a124.48,124.48,0,0,1-10-10.57c-3.68-4.3-7.24-8.71-10.54-13.29a84.65,84.65,0,0,1-6.25-10.39c-2.48-4.76-4.76-9.62-7-14.51a161.19,161.19,0,0,1-11.52-38.36,196.85,196.85,0,0,1-3.21-35.34,153.33,153.33,0,0,1,2.55-27.46c1.87-10,4.23-19.89,8.27-29.26,2.73-6.34,5.66-12.61,8.87-18.72a117.91,117.91,0,0,1,7.53-11.94c2.32-3.38,4.9-6.57,7.37-9.85Z" transform="translate(-75.93 -167.22)"/>
    <path class="cls-2" d="M426.66,325.7c-1.26-1-2.4-1.89-3.51-2.81-1.92-1.59-3.79-3.26-5.76-4.8-2.25-1.76-4.52-3.53-6.91-5.09-3.15-2-6.35-4-9.65-5.8-5.23-2.84-10.54-5.52-15.84-8.24a139.35,139.35,0,0,0-34.5-11.91,195.64,195.64,0,0,0-28.25-3.44,269.8,269.8,0,0,0-45.21,1q-14.16,1.44-28.24,3.65c-6.31,1-12.52,2.66-18.77,4a5.65,5.65,0,0,1-2,.17c.46-.24.9-.51,1.37-.72,4.38-1.9,8.67-4.05,13.16-5.61,6.18-2.14,12.48-3.91,18.79-5.67,15.61-4.35,31.59-6.25,47.74-6.9a162.2,162.2,0,0,1,37.75,3.26,128.82,128.82,0,0,1,31.75,10.5,106.62,106.62,0,0,1,17.21,10.25c1.53,1.14,3.22,2.07,4.75,3.2a147,147,0,0,1,25.35,23.49c.24.28.48.57.69.87C426.61,325.2,426.59,325.35,426.66,325.7Z" transform="translate(-75.93 -167.22)"/>
    <path class="cls-2" d="M457.77,545.27c10.36-20,18.45-40.77,21.77-63.17C479.2,505.52,473.48,527.11,457.77,545.27Z" transform="translate(-75.93 -167.22)"/>
    <path class="cls-1" d="M250.12,323.35c-4.22,13.63-4.26,27.39-6.11,41.26,2.15-.37,4.07-.65,6-1,24.74-5.08,49.46-10.24,74.21-15.23,13.89-2.8,27.84-5.32,41.77-7.95a12.21,12.21,0,0,1,4.11-.18c-1.47.62-2.93,1.25-4.41,1.84a186.25,186.25,0,0,1-33.17,9.64c-12.17,2.41-24.41,4.47-36.61,6.72-7.87,1.45-15.73,2.95-23.6,4.44-.57.11-1.13.31-1.93.54a9.87,9.87,0,0,0,2.86,3.75A21.8,21.8,0,0,0,283.91,372a92.54,92.54,0,0,0,9.41,1c1.66.13,3.3.11,5,.38a39.42,39.42,0,0,0,8.13.29c5.37-.26,10.72-.67,16.07-1.14,5.13-.45,10.24-1,15.36-1.57,4.53-.48,9.06-1,13.59-1.5,5.69-.65,11.38-1.35,17.07-2l16.21-1.93c5.76-.68,11.52-1.39,17.29-2,3.87-.43,7.75-.77,11.67-1.16.15.65.12,1.28.43,1.65a3,3,0,0,0,1.49.87c2.63.7,5.27,1.33,7.9,2,1.78.44,3.57.87,5.33,1.36a7,7,0,0,1,1.81.79c1.13.7,1.17,1.47,0,2.2a11.12,11.12,0,0,1-3,1.38c-5.17,1.37-10.33,2.87-15.58,3.9-9.07,1.79-18.21,3.29-27.32,4.86a122.83,122.83,0,0,0-22.19,6.44c-6.18,2.32-12.36,4.7-18.36,7.43a43.85,43.85,0,0,0-15.62,11.68,38.33,38.33,0,0,0-8.48,20.51c-.26,2.19-.37,4.39-.57,6.88a6.29,6.29,0,0,0,1.13-.52c3.46-2.73,7.53-3.94,11.78-4.6a155.06,155.06,0,0,1,19.14-1.36,107.86,107.86,0,0,1,34.55,4.87,37.57,37.57,0,0,1,6.5,2.69c5.87,3.11,7.86,7.72,6.34,14.2a37,37,0,0,1-5.78,12.32,62.75,62.75,0,0,1-17.43,17.32,30.9,30.9,0,0,1-8.13,3.89c-3.89,1.16-7.54,1.08-10.9-2L353.89,485c-2,2.72-2.66,2.95-6,2-.91-.25-1.83-.47-2.88-.74-1.14,4-4.18,6.07-7.72,7.34-4.42,1.6-8.93,2.92-13.41,4.31a49.63,49.63,0,0,0-11,4.43c-3.06,1.81-5.51,4.16-6.63,7.66a3.55,3.55,0,0,0-.17.64,2.74,2.74,0,0,0,.09.6,59.45,59.45,0,0,0,10.5-.22c11.25-1.3,21.89-4.95,32.59-8.36,3.78-1.2,7.56-2.37,11.35-3.54.55-.17,1.12-.25,2.06-.46A11.48,11.48,0,0,1,359,501.9a37.81,37.81,0,0,1-11.68,4.48c-6,1.37-12.08,2.49-18.05,4-4.41,1.12-8.68,2.75-13,4.1-1.89.58-3.82,1.08-5.75,1.51a3.61,3.61,0,0,0-3,3.07c-.77,4-1.63,7.92-2.33,11.9-.74,4.18-.26,8.38.16,12.55.84,8.35,1.91,16.67,2.69,25a47.61,47.61,0,0,1-.65,15.38,11.46,11.46,0,0,1-2.93,5.87c-2.18-1.38-3-3.72-4.09-6.35-.24.87-.39,1.31-.49,1.76-.74,3.22-1.38,6.47-2.24,9.66a11.1,11.1,0,0,1-1.82,3.49c-1.38,1.86-3.24,2-4.93.43a15.33,15.33,0,0,1-2.68-3.47,41,41,0,0,1-4.23-12.71c-.19-1-.37-2-.55-3a3.71,3.71,0,0,0-3.89,2.22,38,38,0,0,0-1.72,4c-.45,1.09-.77,2.24-1.31,3.27-.73,1.38-1.78,1.6-3.14.83a3.81,3.81,0,0,1-.89-.64c-4.38-4.55-8.53-9.29-9.37-15.86a96.84,96.84,0,0,1-.62-10.78c-.05-3.45.22-6.92.23-10.38a33.14,33.14,0,0,0-3.35-15.59c-1-1.86-1.29-4-1.89-6.08-.16-.54-.28-1.1-.45-1.8a17.89,17.89,0,0,0-1.82.29q-4.35,1.22-8.68,2.47c-.78.23-1.53.52-2.28.82-5.66,2.26-8.73,6.5-8.85,12.52-.09,4.84.4,9.69.64,14.54.12,2.56.27,5.12.42,7.76a2.22,2.22,0,0,1-2.32-1.92,21.06,21.06,0,0,1-.92-5,81.1,81.1,0,0,1,.2-8.82,44.76,44.76,0,0,0-.69-11.21c-.3-1.72-.92-2.94-2.9-3.34-2.22-.45-3.53-2.2-4.76-4.11,2.41-1.61,3.6-3.95,4.62-6.41a81.57,81.57,0,0,0,4.8-18.76,17.45,17.45,0,0,1,1-4.11l1.06,26.58A12.92,12.92,0,0,0,244,527.8a77.73,77.73,0,0,0,6.09-5.18l1.36,3.63a3.42,3.42,0,0,0,2.42-2.42,55.34,55.34,0,0,0,4.8-16.9c.25-2.48.42-5,.44-7.48,0-4.62-2-7.91-6.51-9.44-3.12-1.07-6.29-2-9.43-3-.34-.1-.67-.24-1.2-.44,1.64-5.63.71-11.06-1.08-16.72-3.58,4.82-4.08,10.32-5.15,15.72-.29-1.94-.51-3.9-.91-5.83a41.29,41.29,0,0,0-1.41-5.32,10.35,10.35,0,0,0-4.49-5.81c.85-.45,1.55-.8,2.22-1.19,3.47-2,4.29-5.17,2.25-8.65a14.7,14.7,0,0,0-6-5.41c-.32-1.37.35-2.5.89-3.59,1.43-2.9,3.05-5.71,4.5-8.6,1-1.95,1.79-4,2.66-6a5.3,5.3,0,0,0-3.79-1.62,58.62,58.62,0,0,0-8.37-.36,220.9,220.9,0,0,0-33.54,4.92c-2.72.57-5.42,1.19-8.26,1.82-2.57-6.24-5.08-12.35-7.67-18.66a34.24,34.24,0,0,1,2.9-2.63c3.34-2.42,6.69-4.82,10.11-7.11,5.1-3.42,10.95-4.92,16.83-6.29,6.29-1.45,12.65-2.67,18.74-4.87a28.29,28.29,0,0,0,8.35-4.39,8.35,8.35,0,0,0,1.44-1.47c-7.29,2.92-9.6,2.82-12.48-.78.64-.47,1.3-.91,1.91-1.4,4.15-3.3,8.34-6.54,12.41-9.93a16.29,16.29,0,0,0,3.12-3.69c1.33-2,.79-3.4-1.64-3.76a23.07,23.07,0,0,0-5.93,0c-8.19.93-16.17,2.95-24.15,4.93-11.26,2.79-22.5,5.63-33.78,8.33a43.31,43.31,0,0,1-11.55,1.58c-.85,0-1.7-.22-2.85-.38a15.3,15.3,0,0,1,.85-1.75,19.61,19.61,0,0,1,7.21-6,44.6,44.6,0,0,1,13.76-4.52c6.74-1.12,13.53-1.92,20.31-2.77,7.94-1,15.94-1.51,23.74-3.51,5.35-1.37,9.77-4.34,13.91-7.82,2.15-1.8,3-4.3,3.48-7,.87-4.54,1.85-9.07,2.71-13.62.27-1.44.31-2.92.47-4.38.3-2.85.41-5.74.95-8.54A7.62,7.62,0,0,1,250.12,323.35Zm11.82,41.95a90.06,90.06,0,0,0-13.11,3.84,7.24,7.24,0,0,0-1.52.88,2.35,2.35,0,0,0-.93,3.09,10.77,10.77,0,0,0,1.29,2.29c1.15,1.61,2.48,3.11,3.55,4.77a4.46,4.46,0,0,0,4.54,2c3.42-.25,5.59-2.16,6.4-5.66S262.56,369.23,261.94,365.3Zm-18.79,94.85.43,0a13.48,13.48,0,0,0,.5-1.64c.48-2.75.93-5.51,1.38-8.26a49.79,49.79,0,0,1,2.62-10.9,12.9,12.9,0,0,1,4.4-5.94c1.91-1.37,3.48-1.12,4.89.75.24.32.43.68.67,1.06,2.51-3.16,2.48-6.11-.12-8.89-2.49,1.46-5.08,2.85-7.54,4.44a54.65,54.65,0,0,0-5.83,4.33,10.46,10.46,0,0,0-3.77,9.46C241.39,449.76,242.35,455,243.15,460.15Zm-39.44-25.3a7.31,7.31,0,0,0-9.84-2.44,5.36,5.36,0,0,0-1.73,1.62,1,1,0,0,0,.69,1.69,8.17,8.17,0,0,0,2.39.34c1.82-.12,3.64-.37,5.45-.62C201.66,435.3,202.63,435.06,203.71,434.85Zm31.53-7.67c-1-.42-1.47-.68-2-.89-3.19-1.26-3.6-1-3.87,2.49,0,.11.14.24.35.57Zm12-41.46c-.34-1-.58-1.7-.87-2.43a1.42,1.42,0,0,0-1.89-1,1.78,1.78,0,0,0-1.28,1.81,1.47,1.47,0,0,0,1.45,1.59A18.1,18.1,0,0,0,247.26,385.72Zm-4.41,78.45c-2-.29-3,0-3.19.82-.31,1.23.46,2,1.54,2.91Zm86.07-64.62c1.3-.52,2.22-1.12,2.19-2.34,0-.88-.77-1.39-1.81-1.62C329.17,397,329.06,398.13,328.92,399.55Zm-75-11.48,2.81-.51c-1.15-1.09-1.69-2.2-3.37-2.2C253.56,386.28,253.73,387.07,253.93,388.07Zm6.56-2.31c-2.52-.78-3-.5-3.45,1.84Z" transform="translate(-75.93 -167.22)"/>
    <path class="cls-1" d="M186.37,405.6c2.35-2.86,4.53-5.32,7.72-6.52a8.15,8.15,0,0,1,8.09,1.22C199.42,402,189.26,405.5,186.37,405.6Z" transform="translate(-75.93 -167.22)"/>
    <path class="cls-1" d="M217.16,393.25a23.08,23.08,0,0,1-7.43,5.64c-1,.45-2.15,1-3.38-.39l10.55-5.72Z" transform="translate(-75.93 -167.22)"/>
    <path class="cls-1" d="M300.48,371.31,312,368.82C309.13,371.89,303.78,373,300.48,371.31Z" transform="translate(-75.93 -167.22)"/>
    <path class="cls-1" d="M249.57,513.19v5.55a9.51,9.51,0,0,1-.9-.57C246,515.91,246.18,514.85,249.57,513.19Z" transform="translate(-75.93 -167.22)"/>
    <path class="cls-1" d="M193.94,449.35c-1.32,0-2.4-.3-2.77-1.5s.34-2.21,1.33-3C194.15,446.3,194.3,446.75,193.94,449.35Z" transform="translate(-75.93 -167.22)"/>
    <path class="cls-1" d="M244.15,499.39l5.1-.75C248.43,501.47,247.05,501.73,244.15,499.39Z" transform="translate(-75.93 -167.22)"/>
    <path class="cls-1" d="M296.93,372.43c-1.53-2.08-1.25-3,1.22-5C297.69,369.3,297.31,370.86,296.93,372.43Z" transform="translate(-75.93 -167.22)"/>
    <path class="cls-1" d="M235.62,492.82v4.77h-.18V492.8Z" transform="translate(-75.93 -167.22)"/>
    <path class="cls-2" d="M261.94,365.3c.62,3.93,1.07,7.56.22,11.21s-3,5.41-6.4,5.66a4.46,4.46,0,0,1-4.54-2c-1.07-1.66-2.4-3.16-3.55-4.77a10.77,10.77,0,0,1-1.29-2.29,2.35,2.35,0,0,1,.93-3.09,7.24,7.24,0,0,1,1.52-.88A90.06,90.06,0,0,1,261.94,365.3Zm-5.22,13.39c2-3,1.7-3.84-1.46-4.59a15,15,0,0,0-1.65-.19Z" transform="translate(-75.93 -167.22)"/>
    <path class="cls-2" d="M243.15,460.15c-.8-5.2-1.76-10.39-2.37-15.61a10.46,10.46,0,0,1,3.77-9.46,54.65,54.65,0,0,1,5.83-4.33c2.46-1.59,5.05-3,7.54-4.44,2.6,2.78,2.63,5.73.12,8.89-.24-.38-.43-.74-.67-1.06-1.41-1.87-3-2.12-4.89-.75a12.9,12.9,0,0,0-4.4,5.94,49.79,49.79,0,0,0-2.62,10.9c-.45,2.75-.9,5.51-1.38,8.26a13.48,13.48,0,0,1-.5,1.64Z" transform="translate(-75.93 -167.22)"/>
    <path class="cls-2" d="M203.71,434.85c-1.08.21-2.05.45-3,.59-1.81.25-3.63.5-5.45.62a8.17,8.17,0,0,1-2.39-.34,1,1,0,0,1-.69-1.69,5.36,5.36,0,0,1,1.73-1.62A7.31,7.31,0,0,1,203.71,434.85Z" transform="translate(-75.93 -167.22)"/>
    <path class="cls-2" d="M235.24,427.18l-5.53,2.17c-.21-.33-.36-.46-.35-.57.27-3.48.68-3.75,3.87-2.49C233.77,426.5,234.29,426.76,235.24,427.18Z" transform="translate(-75.93 -167.22)"/>
    <path class="cls-2" d="M247.26,385.72a18.1,18.1,0,0,1-2.59,0,1.47,1.47,0,0,1-1.45-1.59,1.78,1.78,0,0,1,1.28-1.81,1.42,1.42,0,0,1,1.89,1C246.68,384,246.92,384.76,247.26,385.72Z" transform="translate(-75.93 -167.22)"/>
    <path class="cls-2" d="M242.85,464.17l-1.65,3.73c-1.08-.94-1.85-1.68-1.54-2.91C239.87,464.13,240.89,463.88,242.85,464.17Z" transform="translate(-75.93 -167.22)"/>
    <path class="cls-2" d="M328.92,399.55c.14-1.42.25-2.6.38-4,1,.23,1.78.74,1.81,1.62C331.14,398.43,330.22,399,328.92,399.55Z" transform="translate(-75.93 -167.22)"/>
    <path class="cls-2" d="M253.93,388.07c-.2-1-.37-1.79-.56-2.71,1.68,0,2.22,1.11,3.37,2.2Z" transform="translate(-75.93 -167.22)"/>
    <path class="cls-2" d="M260.49,385.76,257,387.6C257.48,385.26,258,385,260.49,385.76Z" transform="translate(-75.93 -167.22)"/>
    <path class="cls-1" d="M256.72,378.69l-3.11-4.78a15,15,0,0,1,1.65.19C258.42,374.85,258.7,375.65,256.72,378.69Z" transform="translate(-75.93 -167.22)"/>
  </g>
  <g>
    <path class="cls-1" d="M136.16,228.14c-2.56,3.35-5.93,7-7.95,10.71-4.15,7.54-9.08,14.93-1.46,23.49.2-3.38,3.86-6.21,7-9.42,2-1.8,9.91-7.55,13.36-6.79,6.15.92,5.39,20.16-.78,19.47.27,3.17.75,2.75-1.8,3.95,2.38,3.64-7,10.09-4.13,15,4.95-3.77,8.06-10.81,11.4-15.92.11,3.95-5,8.51-6.66,11.91-3.53,6.56-3.79,3.16-.83,8.63,1.92,3.84,13.26,10.57,13.22,15.31a4.53,4.53,0,0,1-2.77-1c6,8.35-.07,7.1-4.79,3-2.37,1.89,4.48,6.46-3.75,4.41-4.46-.94-6.89-7.73-11.19-9.44s-1.84-3.26-4.8,1.08c-3.33,5.11,1.61,7.31,5.32,11.47-1.52.92-4.41-3.75-5.48-4.72-3.64-3.36-1.55-.54-5.11-1.42.87-1.41-1.55-6.29-4.59-10.41,2.55,2.85,5.33,5.49,6.92,7.28a6.07,6.07,0,0,0,1.54-5.22c3.65,3.15-.42-4.53-.42-4.53-3.74-5.63-4.35-4.87-9.45-2.46-1.43-2.56-2-2.48-4.05-4.06,0,1.69,1.25,3.79,2.83,5.8-2.24-2.27-4.52-3.87-6.13-3.29,1.89-3.38-1.79-4.16-3.75-3.48-.84-.95-1.17-5.14-2.11-6.44-3.19.5-11.27,11.76-12.26,13.28l-6-2.94c-.2-.46.72-4.69,1.38-6.34,1.24-3.88,7.66-9.6,7.23-13.91-.6,2.44-1.78,3.5-3.34,3.19,5.93-24.92-13.5,13.1-16.63,12.69-1.53-6.74,11.25-15.37,13.39-21.11,1.67-5.54.45-4-2.37-9.83-1.14-1.76-3.84-3.83-2.47-6.12,1.79,4.16,5.07,7.85,7.67,11.72,8.9-11.56,17.13-23.38,26.23-34.7-4.41,10.12-13.64,19.63-20,28.51,3,1.19,7-1.52,8.77-3.56,1.42.87,23.57-25.49,27-28.79C133.56,226.19,146.88,214.09,136.16,228.14ZM89.89,279.85s-2.54,5-2.87,4.91c-.17-3.05.6-4.59,2.87-4.91Zm.53-1.33,1.47-4.08C92.09,274.9,91.63,278.93,90.42,278.52Zm7.82-14.43c3.5-2.06.38-4.83-1.34-6.28-4.06,6-3.35,5.33,1.34,6.28Zm-3.52,26c-.19,3.37,5-4.45,3.16-2a2.62,2.62,0,0,0-3.16,2Zm1.47-23.71c.29.81.74.83,1.59-.14-1.09-.73-1.43-.64-1.59.14Zm.48-4.48c1.52-.93,1.52-.93,2,.56a11.18,11.18,0,0,0-2-.57Zm.58,31.27a1.45,1.45,0,0,1,1.42.87c-.94.62-1.48.25-1.42-.88Zm3.85-29.89a.76.76,0,0,0-.52,1.32c-1.46-.2-1.81.12-.61.75A3.76,3.76,0,0,0,101.1,263.24ZM103,281.16a12.05,12.05,0,0,0,1-2c-2,.68-2,.68-1,2Zm3.35-30.93.91,1.74C106.6,251.93,106.18,251.46,106.36,250.23Zm1.43.64,2.69-3.68C110,248.52,109.63,250.3,107.79,250.87Zm1.73,23c-2.82,7.84-1.67,7.46,4.15,12.08-1.72-3.37-5.14-6.73-3.73-9.69.59-.31,1.15-.39,1.58.09A2.26,2.26,0,0,0,109.52,273.87Zm4.57,12.78c-1,.85-.88,1.41.47,1.49a5.92,5.92,0,0,0-.47-1.49Zm3.62,7.65a36.67,36.67,0,0,1,2.63,3.19,36.51,36.51,0,0,1-2.63-3.19Zm3.57-42.65c.4-1.22.09-1.57-.94-1.29a6.25,6.25,0,0,1,.94,1.29Zm2.2,42.19c.28,1,.15,1.36-1.21,1.51.49-.65.85-1,1.22-1.51Zm3.18,3.56L128,299C126.35,299,126.35,299,126.66,297.4Z" transform="translate(-75.93 -167.22)"/>
    <path class="cls-1" d="M165.89,228.62c.74,1.58.59,2-.47,1.63-.48-.65-.54-1.15.47-1.63Zm-.8,13.23c.66-1.2.66-1.2,1.86-.53-.58.27-1.29.26-1.86.53Zm60.06-19.72c1.95,5.24,16.11,33.77,12.75,37.47-8.68-16.15-11.3-35.51-19.83-51.73-1.88,16.9,12.46,34.61,15,50.48-4.25-1.17-.26,1.7-.15,3.41-.18,1.5-4.77,3-5.78,3.43a6.57,6.57,0,0,1,5.42,2.91c-4.61,2.17-6.44-1.72-9-3.84-.85,6-3.16-4.85-5.89-.92-1.06-.38-.37-2.64-.49-3.29-.94.27-.87.41-.1.93-1.52,1.24-5.28-5.61-5.55-6.18-3.16,4.13-2.08,16.12-6.5,22.43a11.27,11.27,0,0,1-6.86,4.47c3.88-1.48,9.37-14.46,9.61-15.45,2-7.65,3.84-15.73-2.28-22-.91,2.19.55,3.79,1.22,5.94-.6,1-1.23.76-1.84-.54-1.06,6-2.28,12.34-4.06,18.64-.32,1.56-5.86,10.34-5.39,11.34.54,1.51,1.24,2.24,2.09,2.19-3.57.63-7.68-.25-11.42-1.83s-9.24-4.27-6.92-6.07c-8-6.45-10.67-22.25-11.21-33.09-.23-5.7-5.46-38.8-.72-40.33.46,4.72-.22,9.61.66,14.48a2.67,2.67,0,0,0,2.52-1c-1.14-.17-1.47-.89-1.45-2,5.86-1,9.46-2.7,13.05,2.29,3.32,4.42,3.71,12.34,4.66,17.7.82,4.36,2.52,33,5.21,33.81,2.16-7.36,2.91-15.11,4.29-22.63.35.37,2.34-8.85,2.4-11.69-1.07.33-5.49.3-3.71-2.65a1.06,1.06,0,0,1,1.4,1.1,5,5,0,0,0-.9-4.51c1.88-1.24,3,4.2,3.29,5.84,1.24-1.46-4.4-22.74-5.9-25.56-1.48-.53-.85-9.63,1.33-11.72,2.41-2.37,11.49-1,13.12-.56-1.05-.73-.87-2.58-1-3.93a5.49,5.49,0,0,1,2.21,3.18,2,2,0,0,0,1.76-2.24C218.78,198.19,221.05,211.57,225.15,222.13ZM165.34,236.8c1.57,0,1.71.25.73,2.65a13,13,0,0,0-.73-2.65Zm1.44,5.66c1.45,1.95,1.5,3.16.14,3.28,0-1.07-.09-2.07-.14-3.28Zm19.13-30c.8-.91,1.15-.54,1.49.18a2.8,2.8,0,0,1-1.49-.18Zm6.71-6.69c-2.27,2.66,1.07,3-2.79,6.42a5.76,5.76,0,0,0-2.27-3.33c1.72-3.81,3.67,4.43,3.14-3.42C191.54,206.12,192.17,206.35,192.62,205.79Zm-4.28-3.09a2.89,2.89,0,0,1,2.95-1.21,5.86,5.86,0,0,1,.37,2.29A2.88,2.88,0,0,1,188.34,202.7Zm1.77,13.08c2.31-1.45,2.31-1.45.15-.43,0-.85,1.82-1.74,2.27-2.65a6.65,6.65,0,0,1,1.39,4.8c-4.62-.46.5-.41-.92,2.9C188.66,219.8,193.28,217.27,190.11,215.78Zm2.51-10,.14-.07Zm1,29.65c1,.6,0,1.07-.6,1.34a6.88,6.88,0,0,1,.6-1.34Zm.34-17.94a2.2,2.2,0,0,1,.65,2.51,3.85,3.85,0,0,1-.65-2.51ZM196.14,242c-1.41-.74-1.39-1.45-.32-1.78,1.05.73,1,1.44.32,1.78Zm-.67-17.82a1.54,1.54,0,0,1,.05-2.13c.34.72.16,2.57-.05,2.13Zm2.69,57.54a1,1,0,0,1-.65.13,1,1,0,0,0,.65-.13Z" transform="translate(-75.93 -167.22)"/>
    <path class="cls-1" d="M267.23,225.46c.26,1.89,1.29,2.4,2.84,2a4,4,0,0,0-.87-2.94c2-1.71,3-1.37,3.14.71a3.72,3.72,0,0,0,.58-1.69c1.57.92,5.43-.24,4.89-3.06,3.3,4.21.91,2,3.54,0,2.1,4.86,5.42-1.53,9.56-1.76-1,.94-2,2-3.13,3,3,2.32,8.85,2.51,11.24,4.76,4.54,3.89-2.09,9.6-4.85,11.73-9.34,7-19.47,11.77-27.26,19.56-1.11-2.26-2-.37-4-2,.49,8.44-2.94-1.54-3.87,4.69-1-1.15-1.79-3.77-2.43-5-2,2.84-6.42-4.76-7.72-6-1.23-.79-.06-2.88-1.35-2.87-1.64-.26-5.28,3.76-7.11,4.49a253.37,253.37,0,0,1-4-50.07c.08-4.19-1.68-22.11,1.27-25.23,4.8-5,12,1.92,12.34-7.44,6.15,2.71.2-2.12,6.08-.17-1.58-2.2,1.62.1,1.86.71.29-1.48,8,.86,10.44,1.17,5.72.68,24.84-5.26,28.39-1.56-7,1.43-14.38,1.77-21.4,3.36,1.85,4.24,22,1.22,23.09,6.86.89-4.14,8.23,1.46,9.68,2.72-.68.89-3.34,1.41-3.44,1.9,1.49.29,1.75,1.05,1.47,2.54-8-1.17-16.17.4-24.05.33-5.66-.2-12.6-1.68-16.67.31-3,1.37-4.35,3.47-2.88,7.29,1.34,4-.47,2.48,4.28,3.13,8.2,1.3,14.51-6.77,23.38-1.7l3.08,6.18c1.29,0,2.39-.16,3.52-.15-7.14,5.45-14.81,9.37-23.49,12.95-9.7,4.35-9.37,3.18-9.23,12.64Zm-20.09-46.78c-.55-1.7,1.16-1,1-3-7.13-.48-9.55.64-9.93,7.44-.42,7.61-.71,15-.8,22.76-.15,14.48.9,29.44,3.89,43.34,2-.75,9.63-7.24,4.48-8.48a4.74,4.74,0,0,1-1.22,2.9c.42-4.08-1.24-4.49,1-5.44a1.27,1.27,0,0,1-1.57-.92c4.45-1.56.59-5.22,3.3-6.55-1.5-.44-2.89-12-.63-13.08a2.45,2.45,0,0,0-2.24-1.15c6.51-3,.7-.74,1.41-5,.38-2,.25-2.92,1.61-3.59-4.26-1.84.62-8.59-2.34-10.29,1.55-.37,2.54-5,.47-4.88,1.87-2.82,2.25-5.92.1-6.44,1.94-1.06,1.82-5.54.83-5.73C247.63,179.9,247.35,177.84,247.14,178.68Zm-2.31,19.9c-.08,1.78-.71,1.87-1.74.24Zm-.06,19.93c.33,1.24-1.25,1.45-1.65.87.61-.25,1-.63,1.65-.87Zm-1.2,9a4.88,4.88,0,0,1,1.36-.66c0,1,0,1-1.36.66Zm.18-5.81c.21-.83.69-.89,1.42-.19Zm.78,9.38c-.14.17-.09.49-.53.87-.26-.77-.1-.79.53-.87Zm.38-2c-.06.81-.33,1.17-1,.78.34-1,.46-1.35,1-.78Zm-.26-24.71c-.86-.36-.76-.86-.15-1.1Zm.31-15.62c.31,1.08.35,1.39-.3,1.32-.56-.57-.58-.72.3-1.32Zm7.7-15.65c-1.5-.44-1.5-.44-1.74.23Zm1.22-2.9a21.8,21.8,0,0,0-2.16,1.89c.32,0,4.26-.57,2.16-1.89Zm-1.77,14.38c.81.05.75-.43.66-1.06a3.71,3.71,0,0,0-.66,1.05Zm4.42,67.68c-.76-.86-.86.76-1.13,1.11a3.74,3.74,0,0,0,1.13-1.11Zm25.75-42.81s-19.61,4.72-18.09,7.72ZM266.54,232.3c-.79.11-2.13-.36-2,1.56a5.32,5.32,0,0,1,2-1.56Zm-1.05-31.83c.08.63.08.63.87.53a3.44,3.44,0,0,1-.87-.53Zm10.76-2.4c.44.9,2,.84,2.86-.23-.95.13-1.91.1-2.86.22Zm.82,25.27-.08,1.78c1.65-.87,1.84.55,2.62-2A14.27,14.27,0,0,1,277.07,223.34Zm5.59,2.14-1.9.25Q282.34,228.42,282.66,225.48Zm4.71-.79c-.08-.63-.58-.73-1.33-.31.09.63.45.91,1.33.31Zm16.92-42.76a1.14,1.14,0,0,0,1.93.06,11.18,11.18,0,0,1-1.93-.06Z" transform="translate(-75.93 -167.22)"/>
    <path class="cls-1" d="M315.73,240.26c2.18-4.95,1.74-17,3.53-26.06-1.06,12.26-2.38,25.94-3.53,26.06Zm79.13-35.51c-.95,5.33-5.69,10.14-10.52,13.65-5,3.79-10.65,6.18-16.39,8.39-1.42.72-12.69,4-13.07,5.26-.78,1.64,2.81,6,3.56,7.27,1.63,3.53,6.24,10.34,6.8,15.29.35,1.68.33,8.14-1.8,4.69-2.93,1.9,2.16,3.3-3.55,3.57-2.57-.13-3.2-2-4.73-3.43-3-2.47-5.55-6-8-9.36.44.24.54.58.8.95.14-.78-.06-1.47-.93-1.14-.48-.89-1.16-1.66-1.64-2.56.92-2.42-7-7.07-6.54-6.83-1.12-1-5.87-8.81-6.37-10.52-2.94,13.71,11.73,23.94,17.38,35.78,0,0-19-24.75-19.76-27L329,236.64c-1.32,3.81-.89,5-4.47,6-.67-.77.46-3.48.13-4.35-2.07,5.29-.49-7.2-.12-9.24.7-6.66,2.61-11,.87-16.66,3.3,2.37,3.56-8.1,4.24-11-2.19-.39-1.7.5-2.58,1.8-4.43.34-6.58,5.13-7.8,11.06.67-8.29,1.23-15.95,1.6-18s1.59-4.41,2-6.44l2-11.13c.28-1.57-1.58.68-2.23-.24,1.57-1.5,2.79-2.9,3.15-4.93a3,3,0,0,1,.78,2.89,82.31,82.31,0,0,1,26.59.54c2.85.35,4.2-.86,6.45-.78-.5.07,11.23,8.64,1.72.31,2.15-.27,7,.6,6.83,2.51,2.36-2.33,13.24,2.85,15.39,4.37,2.8,2.44,5.75,7.66,7.83,11.43C393.65,198.87,396.11,198.67,394.86,204.75Zm-71.91,25a4.74,4.74,0,0,1,.05-2.09c.39.55.76,2.07-.05,2.09Zm.64-5.39c.22-1.25.26-2.37.46-3.47.13.18,1.29,3.63-.46,3.48Zm9.1-48.18c-1.37.4-5.55.3-6.56,1.41-1.62,1.81-1.57,8.78.62,9.17a10.78,10.78,0,0,1-1.53,1.34c1.66,1.59,3.49-5,6.81-7.35-.22,5.78.42-2.35,3.28-3C335.26,182.61,346.19,176.64,332.69,176.17Zm-5.12,27.71a8,8,0,0,0-.79,2.61c-1.57-.28-.93-2.92.79-2.61Zm1.82,36.88c-.87-1.45.22-1.26.68-2-.3.75-.41,1.38-.68,2Zm.46-6.23c.78-3.42,1.58-7,2.51-10.39-1.65,2-3.34,7.82-2.51,10.39Zm4.19-1.68c1.07.36,1.31-.08.75-1.48-.79-.14-1.18.28-.75,1.49Zm3.06-33.41L336,205.86C336,205.55,338.51,199.69,337.1,199.44Zm1.3,7.18c1.57.28,2-1.1,1.42-4.27-1.83-.65-2.29,1-1.42,4.28Zm34.05-5.88c-.81-2.73-6.28-4.68-8.46-4.26a18.32,18.32,0,0,0-3,1.41c.22-.29.24-.45.43-.57-1.79-1.78-6.43-1.15-8.89-.95-8.67.56-10,1-11.61,9.74,2.55-.68,5.75-1.4,9-2.44-4.85,2.69-9,5-9,5.18,4.69,1.81,8.23,1,11.4.43l.31-1.73a9.48,9.48,0,0,0,2,.52c.2.69-.35,1.07-1.52.38,2.07,2,2.32.58,3.5-1.48C361.89,212.77,365.82,198.91,372.45,200.74Zm-28.38,44.75,1.29,1.84a1.14,1.14,0,0,1-.43.57C343.89,247.4,343.87,246.58,344.07,245.49Zm3.06,4.59a.16.16,0,0,0-.13-.19A.16.16,0,0,1,347.13,250.08Zm2.8-46.41c3.95-2.2,8.25-4.51,11.06-5.78C358.61,200.37,354.21,202.34,349.93,203.67Zm7.88,2.06c1.34-.25,1.75.15,1.36.56-1.68.35-2.13.11-1.36-.56ZM369,181c.77-.67.41-1.38-1.58-2.06a2.23,2.23,0,0,0,1.58,2.07Zm-.63,24.31a20.77,20.77,0,0,1,1.95.84c-.78-1.92-.78-1.92-1.95-.83Zm5.49-3.54c1.32.72,2,.36,2-1.11-.91-.32-1.43-.09-2,1.11Z" transform="translate(-75.93 -167.22)"/>
    <path class="cls-3" d="M398.48,226.11c-2.09,5.18-3.84,10-5.06,12.58-3.61,7.63-6.87,14.89-9.9,22.79-1.62,3.81-3.14,15.6-6.58,18,1.22-12.27,8.89-26.26,13.85-37.12C393.23,236.84,395.82,231.37,398.48,226.11Zm45.57-10.33c-.78.16-1.93-.39-5.47,3.75-1.81,2-13.43,20.95-14.94,20.06,3-5.27,14-16.62,13.66-23-7.25,10.13-14.21,20.75-20.67,31.44-2.89,4.62-5,10.15-8.45,14.14-1,1.45-3.67,7.77-2.88,1.63-2.06.26-2.55,3.9-4.38,4.8-1-2,1-4.65.85-6.64-4.31,8.35.66-5.5,0-7.41-1.65,2.74-3.09,5.41-4.75,7.8a47.14,47.14,0,0,0,1.46-4.95c.14.07.08.21.15.42.69-1.08,1.17-2.09,1.72-2.88a12.47,12.47,0,0,0-1.47,1.24A56.21,56.21,0,0,1,402.27,246c2.32-4.54,8.31-10.51,4.87-15.13,5.09-1.47-1,3.94,5.55-3.19.77-.87,2.1-4.82,2.22-5.82a2.11,2.11,0,0,0,1,1.69c.4-.86.39-1.57-.69-1.91,2.69-.84,7.49-9.49,8.24-10.72-2.73-1.29-9.75-3.2-8.08-1.53-2,1.33-3.21-3.28-3.37-4.41-2.05.61-3.79,2.43-5.73,5,1-1.81,1.84-3.53,2.73-5.4-1.05.73-6.8-1.64-9.74-2.5.91-.44,1.33-.95.75-1.58-2.9,1.27-6-4.07-7-6.47s2.31-1.55-.11-5c8-3.95,18.76,11,23.81,1-9.28-3.86-19.1-6.92-27.76-12.07.2-.78,16,6.35,17.46,7,1.8.67,9.15,4.85,10.78,4.39,2.47-1.12,3.32-7.77,5.85-9.39.28,3.13-3.34,7.05-4.78,9.36,6.42,3.57,29.22,7.48,31.7,13-3.51-.78-10.53-5.68-14-3.11,9.65,4.92,23.35,9.46,33.54,16.21-.4.87-.83,1-1.92,0-.52,2.22,1.37.82,2.18,2.08C467.8,223.66,446.61,215.58,444.05,215.78Zm-45.21,49.07c1,1.19.25,1.7-.08,3.13-1.38-1.53.31-2.14.08-3.13Zm0-8.62c-.2.43-.2.79-.4,1.22A1.78,1.78,0,0,1,398.86,256.23Zm7.39-46.17c-2.52,5.32-5.18,10.58-7.77,16.05C400.64,220.44,403.35,214.32,406.25,210.06Zm-4.18,27.08c.94-2.72.11-5.06-2.49-6.28C402.52,231.36,404.72,237.87,402.07,237.14Zm1.11,11.45c-1.3-.62-2.47,4.47-2.45,5.18Zm.29-19.24c2.12,2.59-1.17,2.09-1.61,1.17.28.14,6.76-6.48,3.44,1.28A2.13,2.13,0,0,0,403.47,229.35ZM407,240.17c-1.23,2.23-2.83,4.12-3.34,6.7C404.81,244.78,407.33,243.15,407,240.17Zm.73-15.33c-.93-.26-1.44-.68-1.79-.67C406.34,224,407.18,223.36,407.71,224.84Zm-.11,7.69c0,1.43-.73,2.3-1.67,2C406,233.71,406.6,232.41,407.6,232.53Zm-.6-11c-1.16-.9-1-1.33,0-1.57.94,1,.95,1.33,0,1.57Zm4.51,10.94c-1.19.67-4.08,5.29-3.77,6.49a1.48,1.48,0,0,0,.88-1.87C410.54,236.74,411.58,235.3,411.51,232.45Zm-2.23-13.91c-.18,1.14-.39,1.57-1.4,1.1a13.36,13.36,0,0,1,1.4-1.1Zm-.47-2c.69-1.08,1.53-1.74,2.75-1.34-1,1.09-1.16,2.09-2.75,1.34Zm1.1,1.4a3.53,3.53,0,0,1,2.93.15l-2,3.11A3.57,3.57,0,0,0,409.91,218Zm5.1-4.45a3.15,3.15,0,0,1-2.07,2.89c.16-2.57-2.52-1-2.91-2.78C415.37,210.14,410.08,215.74,415,213.5Zm-1.68,7.66a7.71,7.71,0,0,0-.52,2.21C411.72,222.33,411.63,221.76,413.33,221.16Zm.82,8c-1.16-.9-1.71.26-1.45,2.31C413.19,230.77,413.59,229.91,414.15,229.11Zm.48-17a2.58,2.58,0,0,1-1.75-1.53,9.44,9.44,0,0,0,1.75,1.53Zm.85,0,.07-.14c.08.57-.27.58-.92.09.28.14.5.06.92-.09Zm-.13,7c-2.11-2.24,2.65-5.62,3.62-6.92a22.52,22.52,0,0,1-.54,4.5C417.18,214.87,416.13,215.61,415.35,219.12Zm0,6.69c1.2-.31,1.4-1.1,1.15-2.45a14.78,14.78,0,0,0-1.15,2.45Zm.19-13.82c-.18-1.49,1-1.3.77-.52C416.1,214.54,416,211.69,415.55,212Zm10.31-17c.73-2.3-7.44-4.76-8.89-2.44-2.47,4.11,5,3.23,3,2.14C420.49,193.72,425.12,197,425.86,195Zm-9.35,28.33c1.15.19,1.7-.6,1.53-1.74a11.85,11.85,0,0,0-1.53,1.74ZM422,242.69l-2.47,4.11C419.68,244.23,420,243.51,422,242.69ZM419.9,218.8c1.15.55,1.56-.32,1.66-2.38-.87-.77-1.42,0-1.66,2.38Zm3.58-5.7c.58.27.78-.16,1-1.09-.57-.28-1-.12-1,1.09Zm11.18-16.2c-2.5-.3-5.49-.31-6.74-2.13a2.26,2.26,0,0,0-2.08,2.53,2.07,2.07,0,0,0,2.69-.48C429.21,201.72,433.28,198.71,434.66,196.9ZM438.5,216c.35-.36,1.05-.73,1.32-1.31-1.14-.19-2.27.34-1.32,1.31Z" transform="translate(-75.93 -167.22)"/>
    <path class="cls-3" d="M462.77,278.44c-1.25,1.44-.95,2.55.36,3.47a4,4,0,0,0,1.62-2.6c2.62.37,3,1.36,1.56,2.82a3.72,3.72,0,0,0,1.64-.68c.36,1.78,3.78,3.9,5.54,1.63-1,5.26-.87,2,2.34,2.65-2.25,4.79,4.73,3,7.65,6-1.36-.13-2.83-.14-4.31-.37.27,3.82,4,8.29,3.88,11.57.09,6-8.57,4.8-12,4.15-11.46-2.34-21.72-6.79-32.72-7.46,1-2.33-1-1.73-1.1-4.33-6,6-.79-3.21-6.08.22.23-1.49,1.64-3.85,2.12-5.12-3.48.36-.69-8-.6-9.78-.21-1.45,2.12-2,1.26-2.91-.89-1.41-6.31-1.47-8.07-2.36a253.07,253.07,0,0,1,34.86-36.15c3.19-2.72,15.45-15.91,19.75-15.77,6.91.3,6.5,10.26,13.74,4.32,2.05,6.4,1.72-1.26,4.16,4.44.6-2.64,1,1.28.7,1.87,1.3-.77,4.65,6.55,6,8.59,3.28,4.73,20.4,15.12,20,20.23-5.73-4.32-10.86-9.6-16.69-13.81-2,4.21,13.66,17.3,10.16,21.85,3.68-2.07,4.35,7.13,4.37,9-1.12.08-3.27-1.57-3.7-1.31.77,1.3.37,2-.93,2.77-4.44-6.79-11-11.84-16.19-17.79-3.59-4.37-7.08-10.55-11.27-12.28-3-1.36-5.49-1-7.37,2.68-2.11,3.65-2.16,1.28.49,5.27,4.46,7,14.69,6.38,16.77,16.39l-2.59,6.4c.86,1,1.7,1.68,2.44,2.53-8.82-1.73-16.83-4.88-25.26-9-9.68-4.38-8.59-4.91-15.58,1.47Zm21.73-46.05c.91-1.53,1.49.23,3-1.23-4.36-5.67-6.8-6.73-12.14-2.51-6,4.72-11.74,9.43-17.58,14.48-10.95,9.48-21.46,20.17-29.89,31.62,1.87,1,11.8,2.42,9.32-2.25a4.82,4.82,0,0,1-3,1c3.33-2.38,2.54-3.91,4.76-2.83a1.27,1.27,0,0,1-.35-1.78c4.12,2.3,4.3-3,7.09-1.86-.67-1.42,7.06-10.11,9.39-9.15a2.47,2.47,0,0,0-.63-2.44c6.53,2.92,1,0,4.69-2.25,1.73-1,2.36-1.75,3.75-1.18-1.45-4.41,6.85-5.23,6.16-8.57,1.31.92,5.43-1.41,4-2.88,3.36-.47,5.94-2.24,4.9-4.19,2.08.75,5.36-2.31,4.85-3.18C483.91,233.56,485.27,232,484.5,232.39Zm-48.91,55.8c.14-1.14-1.14-.15-1.59-.11A3.92,3.92,0,0,0,435.59,288.19Zm7.93-23a2.15,2.15,0,0,1-1,.19c.4-.71.52-.61,1-.19Zm1.73-1c-.64.5-1.09.53-1.26-.24C445,263.47,445.31,263.33,445.25,264.12Zm.31-2.05a4.69,4.69,0,0,1,1.39.58C446.21,263.26,446.21,263.26,445.56,262.07Zm4.47-3.71c.76-.39,1.12-.08,1.08.94Zm3.06-1.35c-.71,1.07-1.91,0-1.74-.66C451.94,256.64,452.51,256.71,453.09,257Zm4.1,25.44c-.6-.52-1.15-1.83-2.52-.49A5.38,5.38,0,0,1,457.19,282.45Zm6.4-34.89c-.29-.88.14-1.14.73-.84Zm4.47-3.71c-1.39,1.12-1.87.7-1.32-1.15Zm16.66,35.26s-16.53-11.56-17.77-8.43Zm-13.84,5.29-1.39,1.11c1.74.67.8,1.75,3.21.68A14,14,0,0,1,470.88,284.4ZM473,290l-1.44-1.25Q470.56,291.71,473,290Zm2.53-52.56c-.61.95-.82,1.19-1.19.65C474.36,237.3,474.46,237.18,475.5,237.44ZM476.69,293c.42-.48.16-.92-.65-1.2-.42.49-.38.94.65,1.2Zm3.64-32.44c-.42.49-.42.49.19,1A3.53,3.53,0,0,1,480.33,260.57Zm3-20.53c.5.64.81.28,1.23-.21A3.45,3.45,0,0,0,483.36,240Zm5.9,27c-.38.93.72,2.09,2.07,2-.72-.63-1.34-1.37-2.07-2Zm3.07-34.2c-.67-1.42-.67-1.42-1.33-1.15Zm3-1a20.72,20.72,0,0,0-2.85-.36c.24.21,3.25,2.81,2.85.36Zm24.62,45.52c-.14,1.14.45,1.43,1.24,1.49a12.7,12.7,0,0,1-1.24-1.49Z" transform="translate(-75.93 -167.22)"/>
  </g>
  <g>
    <path class="cls-1" d="M134.92,622.58c-3,2.94-6,6.08-9.22,9s-6.09,6.23-9.36,9.15c-2.65,2.29-7.5,2.45-3.46-1.69a12.22,12.22,0,0,0-2-.21c-.19-.52.09-1.26.58-2.27-1.86-3.36-4.67,5.2-7.07,4.68,2.41-2.85,5.91-5.4,8-8.46.68-1.11,5-7.78,4.81-8.82-1.86,1.36-4.86,2.28-7.09,3.33s-7,4.62-9,4a3.2,3.2,0,0,1-.6-.34c5.3-1.11,7.81-3.34,12.57-5.71a40.25,40.25,0,0,0,4.28-1.89c1.18-.87,3.56-4.63,4.49-3.84a2.26,2.26,0,0,1,1-1.86c-.91,0-3.56,1.26-3.06,2-.23.16-2,.6-2.76.95a38.78,38.78,0,0,0-6.44,4.24c-1.77,1.25-3.35,3.11-5.34,4.09,1.63-1.81.26-.93-.89-1.37s-.49-.68-1.52-.93c.82-.65,0-1-.35-1.9-1.17,2.12-1.37,3.73-2,6.09-1.34-1.14.34-3.54,1-5.62.4-1-.34-3,.43-3-.76-2.25,2.8-6.34,2-7.53,1.45.07,1.53-1.38,1.25-2.94a1.46,1.46,0,0,0,1.57-.81c-.49-.78-.75-1-.63-.72-.22-.27-.09-.52.13-.78.4,1.41,2.29-2.59,2.92-3.66.78-1,2.16-3,2.21-4.08-1,.61-2.38.92-1.89,2.13-1.58-.45-.85.17-1.42.84-1.15-.53-1.27.35-1.33,1.46-3-2.79-12,16.25-14,15.36.5-3.22,2.06-6.53,2.42-9.69a25.07,25.07,0,0,0-4.76,11.08c-1.82-1,4.33-12.25,5.21-13.81a.9.9,0,0,1,.29,1.13,50.33,50.33,0,0,0,5-7l.25-.41a9.23,9.23,0,0,0,1.89-1.6c-.35-.21-1.1.67-1.42.22,1-1.1,2.22-3.36,2.71-2.15.26-.31.29-.56-.1-.62,2.26-1.2,1-.09,1.72-1.3l3.27-1.86c-.24-2.24,3.29.21.65-2,.65-.88,2.77-2,2.32.09a1.76,1.76,0,0,0-.86-.45c-.51.28,4.06,1.92,3.51-1.21,1.67-.19,2.69,2.28,4.28,3.36-1.49-.46,1.41,2.53,1.11,3.61,2.41-1.16,0,6.5-.14,7.62-1.14-.44-.26,2.09-.21,2.13-.92-.06-4,4.57-3.8,4.7,1.21-1.11.41-.28,1.32-.4-1.53.75,4-.81-1.45,1.18,1.06,2.32,5.11-3.41,7.62-2.8a12.2,12.2,0,0,0,1.56-.89c.51.34.51.34.8-.22a.62.62,0,0,0-.29-.07,4.33,4.33,0,0,1,.89-.31l.47,0c-.15-.76.56-.86,1.08-1,0,.82-.38.66-.83,1,1.07.1,2.34.38,2.55-.6-2.17,0-.49,0-1.42-.84.79.22,1.59.54,2.43.81.23-.7-.24-2.34.87-1a1,1,0,0,0-.22-1c1.86,1.58,1.12-1,2.38-.92,0,0,3.43.78,1.67,1.6,1,.78,1.22-.39,2.2.44-.75.16-.05,1.11-1,1.14.8.94.5.87.79,2,.2.71.85.46,1.49.55a2.85,2.85,0,0,1-1.07,2.21c2.43-.34,1.8.82.84,2.68.57.48.32-.9,1.35,0C138.14,617.31,136.16,621.22,134.92,622.58ZM96.65,607.49a5.35,5.35,0,0,0-.56.77C96,607.59,96,607.59,96.65,607.49ZM100.42,631s-.1,0-.14.06,0-.1,0-.15Zm-2.08-25.78c.28.51-1.06,2.31-1.27,2.13.42-.71.9-1.37,1.27-2.13Zm-.26-.22c-.13.79-.44,1-1.11,1.11.22-.79.49-1.1,1.11-1.11Zm.38-1.28a1.35,1.35,0,0,1,.63-.44C98.94,603.74,98.94,603.74,98.46,603.68Zm.8,1a1.2,1.2,0,0,1,.48-1.2C100.2,603.83,100,604.22,99.26,604.63ZM99.12,603c-.07-.33.1-.54.53-.62C99.84,602.89,99.66,603.1,99.12,603Zm3.83-4.31c-.18,1.27-2.08,2.77-3,3.81C99,601.66,102.18,599.19,103,598.69Zm-2.15,4.22c1.6-2.2.79-.93.23-.07,0,0-.13.06-.23.07Zm5-5.52c-1.49,0-1.61,1.48-2.88,1.3.29-.65,3.19-2.82,2.74-3.55.26.22,2,.08,2.34.29C108.21,595.32,105.47,597.09,105.83,597.39Zm-.59,13.29c.24-.69.28-.22.74-.45-.06.49-.29.65-.74.45Zm1.26-2.85c.67-.05.69.14.28.51-.69.3-.81.11-.28-.51Zm.79-.4c-.45-.11-.45-.11-.33-1,.69.13.11.71.33,1Zm10.43,20.85c-3,1.21-4.37,4.74-5.61,7.25,1.79-2.75,4.88-6.18,5.61-7.25Zm-9.86-22.68c.12-.25.2-.45.28-.65a.43.43,0,0,1-.28.65c.36.31.28.51-.43.61-.17-.32.25-.4.32-.7Zm.07-.92c.19,0,.29.07.21.27,0,0-.11-.18-.21-.27Zm.93-10.86a4.87,4.87,0,0,0,1.08.3C109.45,594.49,109.45,594.49,108.86,593.82Zm7.06,34.27c.87,0,1.24-.2.89-.94-.91,0-1.18.34-.89.94ZM112,605.55c.46.3.64.09.72-.64-.41-.35-.63-.09-.72.64ZM118.56,625a.69.69,0,0,0,.2-1c-.16.92-.94,1.42-.2,1Zm-5.31-32.25c-.35-.12-.42-.45-.31-.8,0,0,1,.93.31.8Zm6.77,30.2c-.86.07-.89.84-.65,1.4a5.22,5.22,0,0,0,.65-1.4Zm-2.74-10c0-.19,0-.29.11-.35-.09.11-.08.2-.11.35Zm.11-.35c.12-.34.4-.46.89-.31a1.75,1.75,0,0,0-.89.31Zm3.76,11.1c-.19.11-1.8,1-1.33,1.46.4-.47.93-1,1.33-1.46Zm-2.92-10.3c0-.43.41-.8.59-.39a4.18,4.18,0,0,0-.59.39Zm1.61-.85a.88.88,0,0,1-1.28-.38c.54-.43,1-.32,1.28.38Zm-3.92-17.73c.44,0,.57-.15.63-.54-.39-.06-.56.15-.63.54Zm5.15,26.77c.41.35.63.09.61-.82a5.45,5.45,0,0,1-.61.82Zm.52,1.69c.18-.21.3-.46.52-.72-.5.29-.5.29-.52.72Zm.7-3.23-.57.67C122.53,621.24,122.75,621,122.29,620.06Zm-5.5-27.62c.56-.14.56-.14.39.69a2.68,2.68,0,0,0-.39-.69Zm3.77,14.76c-1.11,0-.4-.16-.59-.67.21.17.38.5.59.67Zm4.4,11.91c-.49,1.1-1.81,1.5-2.19,2.69,1-.81,2.11-1.24,2.19-2.68Zm-3.81-7.05c.46.4.68,0,.93-.36a2.21,2.21,0,0,1-.93.36Zm.29-6.95c-.44.51-.68.49-.77,0a2.91,2.91,0,0,0,.77,0ZM124,619.44l-.46-.4C123.5,619.57,123.5,619.57,124,619.44Zm.5-1.54c-.59-.14-.71.11-.34.51.44.11.48,0,.34-.51Zm1-7.74-.51.29C125.19,610.24,125.37,610.13,125.52,610.16ZM127,617.7c.17-.21.24-.51.38-.66-.28.12-.52.19-.38.66Zm-.45-7.14c-.53-.1-.53-.1,0,.29-.06-.05-.06-.14,0-.29Zm.09.43c0,.28.26.22.62,0a2.17,2.17,0,0,1-.62,0Zm2,4.5c.59.15.77,0,.83-.45a8.57,8.57,0,0,1-.83.46Zm6.83-7.64a1.51,1.51,0,0,0-.39-.59c-.16.3-.46.86-.18,1.27.44.11.61-.2.52-.72l0,.05Zm2.24,2.71c1,1,0,.72-.21.88a4.72,4.72,0,0,0,.21-.88Zm2.74,5.69c-.48,0-.6-.24-.57-.48.47-.13.67,0,.57.49Z" transform="translate(-75.93 -167.22)"/>
    <path class="cls-1" d="M154.1,642.38c-2.95,5-5.51,9.9-8.16,14.88-.49.81-2,3.38-3.05,3.64-2.41.61-2-2.13-3-2.76-.24-.13-.92.48-1.07.47-.91-.86-.49-2.1-.29-3.09-1.07.07-1.34,0-1-.14a8.67,8.67,0,0,0-1-.25c.8-1,.77-1.68-.28-2.31a5.17,5.17,0,0,1,.85-.36c-.7-.42-.28-.32.31-.52a3,3,0,0,0-1-1.72c-.63,1-1.44,2.14-2.06,3.19-.44-1.13,1.43-2.14,1.44-3.09-.06-1.61-1.76-2.87-3-4.33-2.33,2.32-3.16,6.09-5.83,3.15-1.66-1.85-.65-3.54.52-5.37,1.54-2.32,3.26-2.95,4.28-4.4,1.07-1.65,2.35-5.79,4.77-3.87.18-.84.48-1.61.63-2.39.42-.3.34.76.72.12-1.13-1.55,3.18-2.69,4-2.75.09-.41-.14-.55-.85-.42.73-1.23,5.07-4.4,6-3.6a1.13,1.13,0,0,1,.1-1.36c-3.74.84-10.75,7.41-14.14,10.84a52.74,52.74,0,0,0-5.66,6.57c-1,1.35-3.16,6.49-4.52,6.78.61-4.45,6.29-10.14,9.35-13.14,4.22-4.43,8.73-8.54,14.29-11.38a47.2,47.2,0,0,1,7.43-3.7c3.86-1.17,4.76,1.42,5.48,4.85.51-.33.65-.16.86.28a1.32,1.32,0,0,1-.6,1.53,5.36,5.36,0,0,1,.79.79c-.07-.28,1.15-.34,1.32.31C162.46,631.57,155.5,640.05,154.1,642.38Zm-26.62,3.31a1.22,1.22,0,0,0-.54,1.57C127.65,646.73,127.87,646.23,127.48,645.69Zm.2-.2c.19-.2.47-.27.67-.47C128.07,644.3,127.76,645.22,127.68,645.49Zm2.19-2.48c-.66-.48-1.12-.51-1.43,0,1,0,.95.26.14,1C129,644.46,129.45,644.1,129.87,643Zm1.25-2.1a16,16,0,0,0-1.22,1.25c.35.6,1.26-1.31,1.22-1.25Zm5.26,8.27c.73-1.22-.34-4.86-1.57-5.44a23.21,23.21,0,0,0-1.76,1.88C134.15,646.82,135.22,647.94,136.38,649.18Zm-1.15-13.56c.51.46.69.57.94.4-.32-.11-.41-.64-.94-.4Zm.76-1.68c.44.34.33.51-.17.69a3.31,3.31,0,0,0,.17-.69Zm3.7,7.58c1.22,1.12,2.88-3.1,3.54-4.21C141.88,637.85,137.86,640,139.69,641.52Zm1.77,1.53c-.76,1.68.68.72.95.65a2.28,2.28,0,0,0-.95-.65Zm-2.11-10.9c-.32.28,0,.61.71.66.25-.4-.3-.81-.71-.66Zm9.1,1.57c-1.67,1.61-3.44,2-5.06,4.24-1,1.45-2.16,3.22-1.85,4.43a3.87,3.87,0,0,1,1.65,1.06,32.8,32.8,0,0,1,1.4-3.27c.25-.41.78-.64,1.13-1.22C146.62,637.44,148.59,635.22,148.45,633.72Zm-8.14-2.1c.18,0,.48,0,.91-.09-.64-.38-.64-.38-.91.09Zm4.06,13.56c-.36,0-.43.06-.38.65C144.35,645.88,144.42,645.77,144.37,645.18Zm1-1.74c.1-.18.24-.41-.23-.29a.56.56,0,0,0,.23.29Zm-.91-15.16c-.33-.12-.52.08-.61.35.32.27.54.16.61-.35Zm1.94,9.85c-.1.57.07.67.62.68-.26-.23-.36-.45-.62-.68Zm1.42.93a6.24,6.24,0,0,0-.29,1C148.12,639.44,148.12,639.44,147.87,639.06Zm20.14-22c-2.52.39-5.13.66-7.67.8a14,14,0,0,1-4.78-.33c-.24,0-1.32.64-1.55-.05s.58-1.63,1.15-1.92c-.27-.48-.93-.56-1.13-1.15-.07-.28.3-1.17.28-1.65-1,0-2.1.33-3.19.31-.12-.47,6.13-1.4,7.14-1.51,2-.16,17.22-3.31,17.54-2.65-2.34,1.14-5.65,1.13-8.27,1.55-2.19.35-6.32.26-7.77,1.76a3.92,3.92,0,0,1,1.12.9,1.78,1.78,0,0,1,.28-.86c-.09.42.42,1.28.6.44-.1.57.19.75.67.48-.28-.33-1-1.2-1.06-1.27.26-.71,3,.19,3,.32.33-.43.63-.41.87-.27l0,.1,0-.06c.25.23.61.68,1.1.66,0,.3-.26.31-.49,0,.26,1,.82.49.49,0-.07-.68.84-.21,1.13-.83-.05.21.13.31.37.3.06,0,3.34-.3,3.92.05a.41.41,0,0,1-.65.17c-.56,1.87,5.45,1.59,1.1,3.58C173,616.2,168.5,617.08,168,617.1Zm-14,5.26c-.28-.33-.44-.19-.55.38.26.24.42.1.55-.38Zm1-1.05c-.38.25.26.63.47.67-.14-.16-.27-.47-.47-.67Zm-1-4.88,0-.59C154.28,616,154.37,616.39,154,616.43Zm.94-.24c.09.37.61.29.94,0a.79.79,0,0,0-.94,0c-.52-.07-.68.86-.4,1.19,0-.46.36-.74.4-1.19Zm.59-3.12c0,.34,0,.34.48.52,0-.39-.14-.55-.48-.52ZM161.31,627a5.66,5.66,0,0,1-1.11.92c-.73-.75.63-1,1.11-.92Zm-3.54-13.8c.28.32.28.32.46,0-.06,0-.25,0-.46,0Zm4.28,13.61A1.89,1.89,0,0,1,162,628c-.45-.58-.27-.87.05-1.15Zm-.25-14.13,0,0Zm3.55-.65-.06,0c0-.09,0-.15.16-.14Zm.45,1.22v-.64C165.56,612.88,165.58,613,165.8,613.26Zm-.35-1.4a.17.17,0,0,1,.3,0,.88.88,0,0,0-.3,0Zm3.06,1.36c-.08-.53-.38-.94-.38-.15-.18-.11-.74-.76-1-.63A1,1,0,0,0,168.51,613.22Zm1.76-.69c-.09.42-.09.42.38.54,0-.33,0-.33-.38-.54Z" transform="translate(-75.93 -167.22)"/>
    <path class="cls-1" d="M188.25,651.38c1.34-2.08.07-.34-.06-.4.19.09-2,.08-2.32.25.17-1.25.38-1.39-.52-.52a4.53,4.53,0,0,0-1.91-2.75c-.9-.47-4.95-1.19-5,.12-.75-.33-5.62-1.55-6.56-.41a63.21,63.21,0,0,1,7.74,2.62c0-.21.13-.46.14-.67.29.71.18.44-.08.7,2.19,1.1,3.9,2.43,4.15,4.24a.44.44,0,0,1,0-.27c.73.17,0,.58,0,.58-.86,1.11-1.11,4.25-1.38,4.87a3.42,3.42,0,0,0,1.33.51c.46,1.16-.66.67-1.46,1.66,2.1-.06-2.44,2-3.27,2.42a59.85,59.85,0,0,0-6.58,2.54c-1.81.77-18.72,3.93-17.91.88,3.95,1.12,14.42.86,19.4-2.08-.45-.34-4.25.23-5,.12a38.87,38.87,0,0,1-6.85-.24c-2.89-.51-7.39-.69-7.48-3.91,0-.67,1.07-.06,1.36-.23a3.82,3.82,0,0,0-1.24-1,3,3,0,0,1,1.66-.09c-.16-.81.59-1,1.21-.22.09-.55-1.14-1.31-.22-1.72s1.41-.35,1.69.21c.55-.42,3.4-1,4.3-.2.27-.62,1-.17,1.88-.07-2.94-2.09-10.67-3.38-10-8.58.36-3.39,5.16-6.26,7.69-7.82l-.07,0c2.42.23,5.8-1.93,8.26-2.48a29.35,29.35,0,0,1,8.62-.62c2.42.23,3.9,1.25,5.72,2.33.88.53,3.66,2.48,4.6,2.37-1,1,.47.95.58,1.21C188.89,646.33,191.18,650.58,188.25,651.38ZM167.77,656a4.83,4.83,0,0,0-1.46-1.08,13.93,13.93,0,0,1-2-1c-.52,1.18-5.93-2.36-6.79-1.92-1.42-1-.81-3.08.19-5.38-7.42,4.32,5.23,11.29,9.21,11.32.43,0,1.51-.23,2.15-.18,1,0,.38.32,1.33.36-.25-.11,2.2-.82,1.18-.52a2.18,2.18,0,0,1,.58-.13.66.66,0,0,1-.21-.38c-.89-.17-.75-.48-1.25-1.21a.71.71,0,0,0-.72.65C169.59,656,168.14,654.41,167.77,656Zm-9.93,3.6c.23.17.17.3.33.44.19-.44.09-.55-.33-.44Zm1.7-.15c-.93-.25-1.07-.09-.5,1C159.23,659.93,159.4,659.71,159.54,659.4Zm-2.07-9.55c-.2.28-.43.48,0,.67a3.85,3.85,0,0,1,0-.67Zm2,1.38c-.1-.27-1.46-1.74-1.66-.43a3.21,3.21,0,0,1,1,.16c.08.33.26.41.62.27Zm2.65,8c-.61.55-.47.76.35.74.16-.37,0-.6-.35-.74Zm-2.27-13.34.73-.65C159.84,645.25,159.84,645.25,159.84,645.92Zm3.58,13.91c.45-.18.47-.24.36-.66a2.72,2.72,0,0,0-.36.66Zm2.39-.22c.57-.12.3-.69.06-.49s-.37.35-.06.49Zm2-1.72a2.72,2.72,0,0,0,.94.56c-.27-.57-.37-.68-.94-.56ZM184,640.58a.81.81,0,0,0-1.38-.08c-.12-2.94-10.38-1-12.15-.47.59.18.56.24.08.33-.22-.17-.34-.22-.32-.29a9.45,9.45,0,0,0-2.17.76c.16.81,4.45-1.4,5.15-.28a1.4,1.4,0,0,0,.81-1.2c.47.28-.63,1.28.57.91a3.33,3.33,0,0,1,2,.26c-.31-1.83-.08.19.64-1.13C177.35,639.84,182.77,641.16,184,640.58Zm-14.38,1.59a.44.44,0,0,0-.8,0c.18-.08,1,.21,1.15-.1C169.79,641.59,169.73,641.56,169.61,642.17Zm2.39,15c.42,0,.48.06.47.28a3.06,3.06,0,0,0,.79-.47C172.68,656.38,172.24,656.56,172,657.12Zm1.68.73c.32-.23.36-.51,0-.73-.45.17-.43.48,0,.73Zm-1-8.21c.45-.18.38-.36,0-.58a.81.81,0,0,1,0,.58Zm2.46,1.66c.2-.29-.3-.5-.6-.49a2.29,2.29,0,0,1,.6.49Zm1.66,2-1.24-.54C175.86,653.32,176.34,653.08,176.77,653.27Zm-1.2-2c1.06.46,2.05.89,3.2,1.32.28.2.47.28.73,0C178.43,652.51,176.64,650.85,175.57,651.27ZM174,641.51c-.11.25.08.33.53.31,0-.37-.17-.45-.53-.31Zm2.65,8.55c-.43,0-.66.15-.42.63.56.24.67.14.42-.63Zm.64,3.46c-.19.43.12.57.91.46a5.55,5.55,0,0,0-.91-.46Zm.33-4.52c-.37-.16-.37-.16-.3-.5a1.18,1.18,0,0,1,.3.5ZM176,640.28c-.3-.5.06-.49.36-.66a3.14,3.14,0,0,0-.36.66Zm2.44,8.68a.91.91,0,0,1,.74.69c-.57.12-.95-.19-.74-.69Zm1.38,4.15c.78.41.87.38.47-.24Zm-1.94-11.2c.37.16.54-.06.62-.4-.63-.27-.86-.07-.62.4Zm1.68-.45c.3.5.57.54.59-.19-.1-.27-.38-.31-.59.18Zm4.26,18.79c-.1-.27,0-.37.28-.47a1.86,1.86,0,0,0-.28.47Zm.85-.6-.57.13C184.25,659.55,184.48,659.36,184.65,659.65Zm.14-.31c-.47-.12-1-.79-.45-1a7.31,7.31,0,0,0,.45,1Zm-.89-6.82c-.46-.12-.46-.12-.33-.43a1.63,1.63,0,0,1,.33.43Zm-1.6-10.45c.34.07.32-.39,0-.67,0,.24-.07.49,0,.67Zm.43,0c.55.1.67,0,.53-.36s-.4-.1-.53.36Zm1.84.88c-.11.25,0,.27.5.21.13-.31-.11-.42-.5-.21Zm.85,1.62a3.52,3.52,0,0,0,1.54.89c0-.45-.4-.61-1.54-.89Zm.49-1.12,1.18.51A1.13,1.13,0,0,0,185.91,643.48Zm1.68.73c.7.6.9.47.63-.09a1.22,1.22,0,0,0-.63.09Z" transform="translate(-75.93 -167.22)"/>
    <path class="cls-1" d="M228.31,684.11a2.08,2.08,0,0,1-.34,1.52c-1.4-1.5-2.83-3.49-4.5-4.71-2.33-1.71-1.48-2.07-4.09.26.72.79,7,6.8,6.64,7.21-1.74-1.51-4.24-5.55-6.3-6.3s-3.76,1-5.82,1.75a10.44,10.44,0,0,1-3.55.65,4.78,4.78,0,0,0,1.89-.68c-2.53-2-3.92-3.25-4.33-6.69-.31-2.29,2-8.38-.08-8.85a9.71,9.71,0,0,0,1.06-1c-.68.26-1,0-.61-1a6.67,6.67,0,0,0,.87.75,23.15,23.15,0,0,0,4.51-8.58c-.36.06-4.55,5.37-4.58,6.13,2.15-.9.24,1.1-.11.18-2,0-4,10.51-4,12,.09,2.39,1,5.66,2.87,7-3.16-1.69-3.85-6.64-2.72-11.33a34.53,34.53,0,0,1,6.28-12.7c1.36-1.71,4.12-3.73,5.72-5.59-.35,0-.71.05-1,.06,1-1.31.24-.44,1-.06l.29-.35c.92-.07-.09-.86,1-1.51,1.24,2.23,2.09-4,3.78-1.3-.42-1.55.31-.48,1.4-1.91.69,1.55,1.92-.19,2.39-.71.16,2.06,1.73,1,3.2,1.84,1,.5.77,1.5,1.48,2.07.92.56,2.43,1.25,2.68,2-.33-.08-1.91,2.91-1.7,3.51-1.05.32-1.57-.77-2.64-.94a5.87,5.87,0,0,0-3.3.43c-1.6.61-3,2.31-4.1,3.39-1.9,1.93-5.45,5.3-5.68,8.17,1.75,0,1.8,2.22,4.16,1.29a.93.93,0,0,1-.4-1c.16-.39.35-.34.44-.11.15-1.29,1.12,0,1.81-.92a20,20,0,0,0,2.53-5.34c1-3,1.55-5.63,3.65-1,1.24,2.51.8,4.15-.22,7.12-.63,1.52-1.91,3.18-2.33,4.76-.26.84-.41,1.5-.58,2a5,5,0,0,1,.29.83c.66,2,1.77,1.45,2.69,2.91a17.59,17.59,0,0,1,1.6,4.6A2.12,2.12,0,0,1,228.31,684.11Zm-20.45-.32a5.32,5.32,0,0,0,2.49.7,3.09,3.09,0,0,1-2.49-.7Zm1.29-17.37c-.33-.08-.48-.32-.3-.84.29.28.55.34.3.83Zm5.46,10.9a6.44,6.44,0,0,0-2.27-2.25c-.21.92-1.84,4.45-.17,5C212.7,680.23,215.79,677.66,214.61,677.32Zm-4.11-4.55c.46.11.57-1,.76-1.22-.63-.28-.79.1-.76,1.22Zm5.63,3.08c-.67.2-2-2.26-2.65-3-1,2.47-.26,2.37,2,4.13A.94.94,0,0,0,216.13,675.85Zm-3.22-8.24c.31-.41,2.42-3.28,2.3-4a.75.75,0,0,0-.39.82C214.26,664.44,212.68,666.8,212.91,667.61Zm1.58-5.41-.41.88C214.6,662.64,214.6,662.64,214.49,662.2Zm1.09-5.74c-.52.44-1.93,1.17-.63,1.53.17-.45.38-1,.63-1.53Zm4.83,14.31c.38-.75,1.24-3.33-.25-1.66a5,5,0,0,1,.25,1.66Zm1.44-3.29c-.5.37-.63.34-1.07-.17.33.07.67.08,1.07.17Zm.19,4.7c.27.34.39.09.45-.45a2.73,2.73,0,0,1-.45.45Zm4.1-5.82c-.33-.07-3.61,6.7-3.48,7.36C223.89,671.7,226.21,668.81,226.14,666.36Zm-3.2-2.18c-.07.33-.38,2.91-1.46,2.17,1-.46.07-2.14,1.46-2.17Zm-1.47-13.48c-.16.73-1.15.16-1.09,1.15.28,0,1.9-.41,1.09-1.15Zm2.18,12.81a4.58,4.58,0,0,0-.46-.73c.51-.1.66.15.46.72Zm1,3.76a6.81,6.81,0,0,0-.35.62c.39-.19.39-.19.35-.62Zm3.66-18.65c.09,1.14-1.7,1.08-1.7-.17a13.79,13.79,0,0,0,1.7.17Zm4.26,4.24c-.21.3-.47.24-.7,0,0-.13.39-.18.7,0Z" transform="translate(-75.93 -167.22)"/>
    <path class="cls-1" d="M261.92,674.62C261.43,677,260,690.46,258,691c.55-7.79,4-15.36,4.63-23.15-4.52,5.67-3.39,15.31-6.08,21.61-1.26-1.39-.48.55-.83,1.2-.4.49-2.39,0-2.86-.08a2.81,2.81,0,0,1,1.29,2.27c-2.15-.26-1.93-2.08-2.38-3.43-1.68,2,0-2.47-1.91-1.68-.3-.37.47-1,.57-1.29-.4-.12-.41-.05-.25.31-.83.1-.62-3.22-.59-3.49-2.08.77-4.42,5.33-7.45,6.6a4.84,4.84,0,0,1-3.49.05c1.74.35,6.67-3.08,7-3.38,2.47-2.29,5-4.79,4.19-8.44-.83.58-.67,1.49-.92,2.42-.43.22-.61,0-.54-.62-1.74,1.91-3.63,3.93-5.7,5.8-.47.48-4.47,2.38-4.52,2.86-.15.66-.07,1.08.25,1.26a9,9,0,0,1-3.7-3.26c-1-1.35-2.35-3.64-1.11-3.76-1.4-4.14,1.22-10.45,3.5-14.47,1.21-2.11,6.86-15.22,8.92-14.7-.91,1.81-2.27,3.42-3.06,5.37a1.16,1.16,0,0,0,1.14.21.7.7,0,0,1-.08-1c2.34,1,4,1.18,4.18,3.8.19,2.35-1.47,5.29-2.35,7.44-.7,1.75-6.59,12.44-5.82,13.36a94.56,94.56,0,0,0,6.7-7.17,21.7,21.7,0,0,0,3.53-3.67c-.47-.12-2.05-1.14-.74-1.8a.45.45,0,0,1,.25.72,2.12,2.12,0,0,0,.71-1.83c1,0,.14,2.2-.15,2.85.78-.24,3.6-9.19,3.69-10.55-.41-.53,1.89-3.66,3.15-3.92,1.41-.3,4.38,2.25,4.86,2.79-.22-.51.27-1.13.54-1.64a2.36,2.36,0,0,1,.07,1.65.86.86,0,0,0,1.14-.41C265.07,664.55,262.84,669.88,261.92,674.62Zm-23.55,15.22a.44.44,0,0,0,.26.1A.44.44,0,0,1,238.37,689.84Zm-2.11-21.18c.08,1-.18,1.48-.69,1.21.25-.38.43-.77.69-1.21Zm-.47-.61c.52-.28.52-.28.79.24-.27,0-.52-.21-.79-.24Zm1.25-1.76c.57.34.55.48-.35,1.12a5.66,5.66,0,0,0,.35-1.12Zm2.05-2.82c-.09.74-.24.86-.54.48,0-.35.07-.54.54-.48Zm7.86,11.7c-.34-.59-.17-.84.29-.72.21.51,0,.76-.29.72Zm.56-2.94c.22.44-.25.38-.52.35a3.13,3.13,0,0,1,.52-.35Zm3.23-7.87c1.16,0,1.16,0,.15-.12.18-.32,1.05-.21,1.42-.44a2.84,2.84,0,0,1-.59,2.05c-1.56-1.22.28,0-1,.83C249.3,665.48,251.54,665.62,250.74,664.36Zm0,4.24a.65.65,0,0,1,.5-.76c0,.34-.53,1-.5.76Zm-.79-6.39c.5-.14.54.07.5.4a1.14,1.14,0,0,1-.5-.4Zm1.74,3.63a.94.94,0,0,1-.34,1.06,1.61,1.61,0,0,1,.34-1Zm2.2-4.51c-1.42.44-.3,1.33-2.47,1.68a2.43,2.43,0,0,0-.06-1.72c1.49-1,.32,2.44,1.91-.51C253.45,661.21,253.63,661.43,253.92,661.33Zm-.84-2.08a1.23,1.23,0,0,1,1.34.23,2.42,2.42,0,0,1-.39.91A1.23,1.23,0,0,1,253.08,659.25Zm.84,2.08h0Z" transform="translate(-75.93 -167.22)"/>
    <path class="cls-1" d="M277.72,680c0,.81.39,1.09,1.07,1a1.75,1.75,0,0,0-.18-1.29c1-.59,1.36-.38,1.28.5a1.67,1.67,0,0,0,.35-.67c.6.48,2.3.24,2.26-1,1.11,2,.25.89,1.48.23.58,2.18,2.38-.3,4.15-.13-.48.33-1,.73-1.52,1.06,1.14,1.18,3.57,1.63,4.43,2.73,1.66,1.93-1.49,3.91-2.8,4.63-4.38,2.36-8.95,3.7-12.74,6.48-.32-1-.81-.28-1.54-1.11-.33,3.59-1.13-.84-1.93,1.73a14.18,14.18,0,0,1-.7-2.25c-1,1.06-2.4-2.42-2.86-3-.47-.42.15-1.22-.39-1.3s-2.46,1.25-3.28,1.43a108.27,108.27,0,0,1,1.54-21.34c.31-1.76.72-9.42,2.16-10.55,2.34-1.79,4.93,1.59,5.68-2.34,2.41,1.54.22-.87,2.57.32-.52-1,.68.15.74.42.21-.6,3.31.88,4.32,1.17,2.36.65,10.8-.62,12.06,1.17-3.06.15-6.17-.18-9.23,0,.51,1.91,9.19,1.94,9.28,4.38.64-1.68,3.37,1.15,3.91,1.77-.35.33-1.5.38-1.58.58.61.21.67.55.46,1.16-3.31-1-6.84-.87-10.15-1.41-2.37-.45-5.2-1.52-7-.94a2.12,2.12,0,0,0-1.69,2.89c.31,1.77-.35,1,1.6,1.59,3.38,1.08,6.55-1.92,10,.79l.9,2.8c.54.08,1,.09,1.49.16a43.05,43.05,0,0,1-10.72,3.95c-4.37,1.2-4.16.73-4.7,4.73Zm-5.45-21c-.12-.75.55-.33.63-1.21-3-.67-4.06-.35-4.66,2.49-.67,3.18-1.27,6.29-1.8,9.53a84.87,84.87,0,0,0-1.15,18.51c.88-.19,4.52-2.43,2.43-3.28a2,2,0,0,1-.7,1.14c.44-1.69-.23-2,.79-2.23a.53.53,0,0,1-.6-.48c2-.37.58-2.16,1.81-2.55-.61-.28-.45-5.23.58-5.55a1.05,1.05,0,0,0-.88-.63c2.94-.83.35-.26.92-2,.29-.81.3-1.21.91-1.41-1.68-1,.81-3.58-.32-4.48.68-.06,1.39-1.94.51-2,1-1.06,1.33-2.35.46-2.7.88-.33,1.12-2.22.72-2.36C272.4,659.53,272.41,658.65,272.27,659Zm-4.47,21.9c-.07.07-.07.2-.28.33C267.46,680.88,267.53,680.88,267.8,680.89Zm.28-.81c-.07.34-.21.47-.48.26.21-.4.29-.54.48-.26Zm-.46-.75a2.13,2.13,0,0,1,.62-.2c-.08.41-.08.41-.62.19Zm.45-2.44c.15-.34.35-.33.61,0Zm.64-1.28c.06.55-.62.53-.75.26.27-.06.48-.2.75-.26Zm2.78,15c-.27-.41-.41.27-.55.4A1.85,1.85,0,0,0,271.49,690.59Zm-1.93-20.93c-.33-.21-.26-.41,0-.48Zm.46-2.44c-.15.75-.43.74-.75,0Zm.68-4.12c.06.47.06.61-.21.53-.2-.27-.2-.34.21-.53ZM277,682.82c-.34,0-.88-.29-1,.53a2.2,2.2,0,0,1,1-.53Zm-3-21c.34.07.34-.13.35-.4a1.39,1.39,0,0,0-.35.4Zm11.11,12.42s-8.57.72-8.12,2.09ZM275,657c-.6-.28-.6-.28-.74,0Zm.7-1.14a8.05,8.05,0,0,0-1,.66c.14,0,1.83,0,1-.66Zm2.94,13.49c0,.27,0,.27.34.27a1.44,1.44,0,0,1-.34-.27ZM282,679.72l-.15.75c.75-.26.74.35,1.23-.66A5,5,0,0,1,282,679.72Zm2.22,1.27-.82,0C283.73,681.79,284,681.8,284.22,681Zm-.94-12c.13.4.81.49,1.22.09-.41,0-.81-.09-1.22-.09Zm3,11.93c0-.28-.19-.35-.54-.22,0,.27.13.41.54.21ZM296.13,664a.49.49,0,0,0,.81.15,6.63,6.63,0,0,1-.81-.15Z" transform="translate(-75.93 -167.22)"/>
    <path class="cls-1" d="M344,670.3c.12,2.38,2.27,15.78.43,16.85-1.48-7.67-.09-15.87-1.5-23.55-2.91,6.63.67,15.66-.3,22.44-1.58-1-.32.66-.49,1.37s-2.32.59-2.79.66a2.8,2.8,0,0,1,1.84,1.87c-2.15.29-2.41-1.52-3.19-2.71-1.11,2.35-.67-2.37-2.28-1.12-.38-.29.19-1.12.22-1.4-.42,0-.41,0-.16.36-.78.32-1.44-3-1.47-3.22-1.81,1.28-2.89,6.3-5.49,8.3a4.78,4.78,0,0,1-3.36,1c1.76-.11,5.65-4.69,5.87-5.07,1.79-2.85,3.56-5.9,1.86-9.23-.64.78-.25,1.61-.26,2.57-.36.33-.59.15-.68-.45a81.26,81.26,0,0,1-4,7.07c-.33.59-3.7,3.46-3.63,3.93,0,.68.21,1.06.57,1.15a9,9,0,0,1-4.42-2.19c-1.31-1-3.21-2.91-2-3.35-2.42-3.63-1.52-10.4-.36-14.88.63-2.35,2.71-16.48,4.83-16.5-.41,2-1.31,3.88-1.57,6a1.13,1.13,0,0,0,1.15-.1c-.44-.21-.48-.55-.34-1,2.51.34,4.19.1,5,2.59.79,2.22-.06,5.49-.35,7.79-.22,1.88-3.16,13.73-2.17,14.41a93,93,0,0,0,4.61-8.65,20.79,20.79,0,0,0,2.46-4.46c-.48,0-2.27-.57-1.17-1.54a.45.45,0,0,1,.43.62,2.15,2.15,0,0,0,.21-1.95c.92-.26.7,2.1.59,2.8.69-.44,1.1-9.81.85-11.15-.54-.4.87-4,2-4.6s4.8,1.05,5.4,1.44c-.33-.43,0-1.16.11-1.72a2.33,2.33,0,0,1,.49,1.57.86.86,0,0,0,1-.69C344.44,659.75,343.66,665.48,344,670.3Zm-26.32.86c.34,1,.2,1.47-.36,1.35.14-.43.22-.86.36-1.35Zm.21-.45c-.27,0-.56-.05-.82,0C317.48,670.29,317.48,670.29,317.88,670.71Zm-.12-.87a5.58,5.58,0,0,0,0-1.17C318.44,668.85,318.46,669,317.76,669.84Zm.9-3.82c-.11-.33-.07-.54.4-.61C319.16,666.15,319.05,666.3,318.66,666Zm6.51,25.05a.4.4,0,0,0,.28,0A.4.4,0,0,1,325.17,691.07Zm4.6-17.15c.33.43.23.72-.1.77C329.19,674.21,329.29,673.92,329.77,673.92Zm-.73-1.75a4.2,4.2,0,0,1,.42-.47C329.78,672.07,329.31,672.14,329,672.17Zm.21-10.78c.45-.27.54-.08.59.26a1.26,1.26,0,0,1-.59-.26Zm1.29,1.87c1.13-.29,1.13-.29.12-.15.09-.35,1-.47,1.26-.79a2.85,2.85,0,0,1-.05,2.13c-1.82-.77.26-.1-.74,1.06C329.44,664.72,331.64,664.28,330.54,663.26Zm1.12,4.1a.67.67,0,0,1,.29-.87c.05.34-.26,1.07-.29.87Zm1.17-7.84c-1.26.79.05,1.36-1.95,2.26a2.48,2.48,0,0,0-.5-1.64c1.19-1.33.93,2.26,1.71-1C332.35,659.52,332.58,659.69,332.83,659.52Zm-1,4.93a.93.93,0,0,1-.05,1.1,1.69,1.69,0,0,1,.05-1.1Zm-.39-6.73a1.26,1.26,0,0,1,1.36-.12,2.62,2.62,0,0,1-.14,1A1.22,1.22,0,0,1,331.48,657.72Zm1.35,1.8h0Z" transform="translate(-75.93 -167.22)"/>
    <path class="cls-1" d="M377.86,658.59c0,4.26-.23,8.66.32,12.85a53.43,53.43,0,0,1,1,5.63c.11,1.86-1.24,4.85-.93,6.1-.64.51-2.8-.28-3.31-.36-1.61-.3-2.76-1.83-4.37-2.41-1.08-.43-4.14-2.33-2.68-3.74-1.81,0-1.23-1.31-2-.42.25-.69-.39-1.86-.57-2.58-1.12,1.39-.41-.53-.57-1.19-1.17.08-3.91-2-3.68-2.44a.56.56,0,0,0-.92,0c-.13-1.09-4.2-10.7-4.79-10.56.48,5.62,2,17.76,7,20.35-1.17.64.36.05.34.83a1.2,1.2,0,0,1-1.64.13c.14.31,1.75.89,1.36,1.54-.58-.62-4.43-.09-5.59-.56s-2.52-2.25-3.72-2.58c1.3,3.25,3.2,7,5.88,9.31-3.92.83-8.63-14.5-9.86-17.76-1.59-4.14-2.06-8.29-2.71-12.6-.31-2.37-1-5.85.37-8.07,1.23-1.84,3.2-2.61,4.37-3.25,9.68-2.4,11.39,7,16.88,13.08.35-3.65.57-9.51,1-13.24,3.2,4.45-2,12.37,1.21,17.24,1-2.63-.24-7.14-.13-10.1.08-2.47,0-8.31,2.59-6.17.27-.34.23-.47-.1-.67,1.51-2.4,2.87,7.89,3,8.82.51,3.72.53,8,1.76,11.59.35-2.53-1.94-17.69.28-18.87C378.85,649.89,377.8,656.65,377.86,658.59Zm-29.49,2.57c.45-.18.59-.71.07-.86A3.65,3.65,0,0,1,348.37,661.16Zm-.45-4.09c.37.68-.09,3,.72,2.62,0-.62.13-2.83-.72-2.62Zm1-6.54c-.64,0-.74.11.05.47-1.81-.52-.65,3.87-1.57,4.1,1,.51.21.86.73,1.84C348.48,656.24,349.39,650.91,349,650.53Zm6.19,28c-3-5.55-4.49-11.61-5.73-17.73C349.34,664.48,351.4,676.48,355.14,678.56ZM349,649.47a2.84,2.84,0,0,0,.66-.44c-.22,0-.74-.16-.66.44Zm9.25,33.08.73-.18C358.72,682.56,358.58,682.88,358.22,682.55Zm-.93-6a2.17,2.17,0,0,0,.89,1.59A2.75,2.75,0,0,0,357.29,676.56Zm-2.5-23.08.36.89C355.33,654,355.2,653.73,354.79,653.48Zm14.57,21.83c-1.15-2.37-12.85-19.39-14.17-20.74C358.21,661.65,364.37,669.28,369.36,675.31ZM356.67,649.8c.44-.46.05-.92-1.22-1.24a1.5,1.5,0,0,0,1.22,1.24Zm1.68-1.39c.67,1.86,3.68,5,4.79,6.63a68,68,0,0,1,4.4,7C369.79,662.13,359.27,649,358.35,648.41Zm6.13,14.83a4.63,4.63,0,0,0-1.12-2A3.59,3.59,0,0,0,364.48,663.24Zm4.23,8.32c-.15-.59-.15-.59-.5-.86C368.36,671,368.54,671.18,368.71,671.56Zm1.57-7.45c-.56.56-.57.77.07,1.66a8.57,8.57,0,0,0-.07-1.66Zm5.8,17.43a1.33,1.33,0,0,0-1.83.25C374.63,682.74,375.4,681.64,376.08,681.54Z" transform="translate(-75.93 -167.22)"/>
    <path class="cls-1" d="M413.49,668.92c5.87,2.38,7.82-5.89,9-9.49,2.46.94-3.47,8.84-5,9.47-4.31,1.83-9.31-.91-11.73-4.53-4.3-6.5-3.56-15.88-.92-22.68-1.27,1.87-.76-.93-.08-1.58s1.8-.1,2.56-.72c-1.11-.19-1.75.37-2.26.22s2-3,2.2-3.51c-2.35.55-.25-1.44.61-2a8.2,8.2,0,0,1,1.67-.93,1.56,1.56,0,0,1,.35-1.25c.68.37.75.71.3,1.05a3.06,3.06,0,0,1,2-.06c-.17-1.62,5-.33,5.35.1,2.62,2.71,1.18,7.82-.4,10.7-1.55-1.4-.48-3.92-2.31-.93-.17-1.78-1.05-1.77-.55-2.86-4.5,1.9.89,7.5-.77,9.83-.64-1.5-.63-3.05-1.3-4.46-2.6.66-2.08,15.77.05,17.15a.73.73,0,0,0,.14-1.24.91.91,0,0,1,.61-.11c.18-1,1.95-2.89,2.54-1.67-1.09-.13-1.45,1.28-1.66,2.18a8.94,8.94,0,0,0,1.66-2.18c2.36-2.25,3.12-6.7,3.71-9.68.34-1.62-.48-3,1.27-3.41,4.53-1,1.1,10.58.55,12.22C419.53,663.34,418,666.87,413.49,668.92Zm-8.92-11.47c1-.21.76-1.87.47-2.19,1.88-.28-.24-1.44-1.46-.85.17,1.11.29,2.09,1.47,2.25-.34.07-.54.3-.48.79a4.4,4.4,0,0,0,.1,1.44c1.11.19,1.48-.34,1.25-1.57A1,1,0,0,1,404.57,657.45Zm1.28,2.48c-.16.15-.46,0-.62.12a.54.54,0,0,1,.33-.44,3.44,3.44,0,0,0-1-.7c.41,2.19,2,4.32,3.25,6.44C408.52,664.33,407.18,661.51,405.85,659.93Zm-1.3-10.87c.88-.52.81-.86-.27-1h0c.27,1,.35,1.18.21,1,.2.65,0,1-.58.9-.22-.71.38-1.71.37-1.92a5.89,5.89,0,0,1-.9-.21c0,1-.12,2-.24,2.91C405.1,650.89,405.16,650.5,404.55,649.06Zm.94,2.55c-.89-.87-1.54-.67-2,.33,2.09.07-.36,1.78,2,1.68C405.85,653,403.92,652.27,405.49,651.61Zm-.87-4.64c-.34.07-.73,0-1.07.08C403.54,647.72,404.5,647,404.62,647Zm.44,2.24a1.45,1.45,0,0,0,.86.3C406.17,648.89,405.33,648.81,405.06,649.21Zm0-1.76c.58,0,.58,0,.51-.51A3.44,3.44,0,0,1,405.05,647.45Zm.48-.94c.09-.48.86-2.14.51-2.8a3.55,3.55,0,0,0,.66.16c.19-.59-.1-.91-.84-.75a.42.42,0,0,0-.08.33,2.06,2.06,0,0,0-.58,0,.92.92,0,0,0,.66,1.19C404.93,645.44,404.77,645.58,405.53,646.51Zm.48,1.12a.64.64,0,0,0-.27.93C406.19,648.59,406.3,648.32,406,647.63Zm-.23-4.18c.12.1.21.14.26.26C405.92,643.61,405.84,643.58,405.78,643.45Zm7,24.91c-.89,1-.85-1.12-2.33-.63a8.45,8.45,0,0,0,2,1.07C412.71,668.81,412.81,668.7,412.74,668.36Zm-7.42-30.17.21-.89C405.8,637.77,405.8,637.77,405.32,638.19Zm.91,3a1.54,1.54,0,0,0,.77-1.14C406,639.91,405.77,640.29,406.23,641.2Zm2.66-5.7c-.57,0-.74.32-.41.76-1.05.3-1.63,1.73-1.63,2.76C408.09,638.12,408.15,636.7,408.89,635.5ZM413.17,661a3,3,0,0,1,.32.23C413.51,660.44,413.42,660.41,413.17,661Zm-4.6-26.13c.45,0,.75.05.88-.52C409,634.2,408.77,634.52,408.57,634.9ZM416,657.34c1.08.28,0,.28-.09.48C415.39,657.58,415.37,657.37,416,657.34Zm.59-2.6a13.45,13.45,0,0,0,1-1.1C417.85,654.18,417,655.43,416.54,654.74Z" transform="translate(-75.93 -167.22)"/>
    <path class="cls-1" d="M422.43,630c-1.62-1.45.26-.68.26-.68,0,.25-.24.44-.26.68Zm17.38,27.56c1.63,3,4.06-2.63,5.47-4.45,1.79-2.42,4.37-7.1,7-8.41.65.8-7.65,10.76-8.62,12-1.2,1.64-1.84,2.6-3.52,2.34-.76-.13-2.33-2.22-2.07-2.74-.62-.44-.89-.22-1.05.48-.71.54-1.42.37-2.05-.52-.48,0-2.16-1.31-.68-.71,0-.36-.35-.51-.59-.23-.41.53-1.12.06-.91,1-.58-.23-.69-.71-.55-1.32,2.11.49.7-2.3,0-3.1.22.27-.39.13-1-.16,1-.45-.18-1.36-.26-1.93-.11-1.79-1.62-.45-1.74-.53,1.63-1.41,1.18-2.25-.49-1,.08-.43.08-.73-.2-1,2.13.25,1.17-1.4,0-1.91a.89.89,0,0,1,.78-.11c-.39-1.33-1-1.46-1.92-.29.27-.37.14-.61-.23-.72a5.14,5.14,0,0,1,1.33-.25,43.46,43.46,0,0,0-1.89-4.83c.21-.19-3.09-9.12-3.92-9.83.3-1,.06-1,.12-2.21.08-1.43.37-1,.67-2.06.08-.57.67.11.83-.9.33-1.25-1.31-2.6-.62-3.9.11.64.81,4.11,1.43,4.55,2.62,1.6,1.76-1.17,3.08-.57,1.5.66,3,5.48,3.48,6.68,1,2.56,4.2,15.52,6.58,15.79.45,0,3.93-3.86,4.38-4.18a21.5,21.5,0,0,1,3.45-2.46c1.11-.51,4.6-.75,5.33-1.83,1.79,4.65-3.24,6.18-5.58,9.58C445.14,649,441.13,658,439.81,657.58Zm-15.26-20.85c-.46-1.14-1.12-.79.05-1.34.42.78.34,1.21-.05,1.34Zm.73.23a3.85,3.85,0,0,0-.74.62c-.34-.35.47-.56.74-.62Zm.19,1.21c-.3.46.8.64.08,1-.52-.41-.52-.41-.08-1Zm0,1.6a1.55,1.55,0,0,0,1.11-.51c-.53.74-.86,1-1.11.51Zm1.87,3.23c0,.61,0,.61-.66.2a4.82,4.82,0,0,0,.66-.2Zm-.76-3.74a.07.07,0,0,1,0-.09A.07.07,0,0,0,426.59,639.26Zm4.11,12.18c-.95-.49-1.73-1.07-.42-.93C430.49,650.48,430.63,651,430.7,651.44Zm0,0a2.27,2.27,0,0,0,.55.32c-.15,0-.27.07-.48.11Zm1.6,3.15a4.72,4.72,0,0,0-.68-.56C432.4,653.62,432.64,653.79,432.3,654.59Z" transform="translate(-75.93 -167.22)"/>
    <path class="cls-1" d="M449.11,627.48c.21-.54.21-.54.75-.34-.22.15-.52.19-.75.34Zm-.51-5.62c.42.62.38.8-.09.71-.24-.24-.3-.45.09-.71Zm.3,3.48c.66-.12.73,0,.47,1.07a5.82,5.82,0,0,0-.47-1.07Zm24.26-10c1.16,2.09,8.94,13.21,7.76,15-4.68-6.25-7-14.24-11.65-20.53.28,7.24,7.45,13.79,9.54,20.31-1.86-.22,0,.73.16,1.45s-1.82,1.55-2.22,1.81a2.8,2.8,0,0,1,2.47.88c-1.8,1.21-2.82-.31-4.05-1,0,2.59-1.64-1.84-2.54,0-.47-.1-.32-1.09-.42-1.36-.37.17-.33.23,0,.4-.56.62-2.58-2-2.73-2.25-1.07,1.94.15,6.92-1.31,9.86a4.81,4.81,0,0,1-2.61,2.33c1.55-.87,3-6.69,3.07-7.13.36-3.35.62-6.87-2.36-9.12-.24,1,.47,1.56.89,2.43-.19.45-.47.39-.81-.11-.07,2.58-.17,5.34-.52,8.11,0,.68-1.81,4.73-1.55,5.12.32.6.66.87,1,.79a9,9,0,0,1-4.93,0c-1.64-.37-4.16-1.21-3.3-2.12-3.77-2.21-5.92-8.69-6.83-13.22-.46-2.39-4.78-16-2.88-17,.5,2,.52,4.06,1.21,6.06a1.16,1.16,0,0,0,1-.59c-.49,0-.68-.28-.73-.73,2.4-.8,3.81-1.75,5.64.13,1.68,1.65,2.35,5,3.09,7.16.63,1.79,3.17,13.73,4.35,13.91a97.17,97.17,0,0,0,.37-9.8,21,21,0,0,0,.26-5.08c-.43.2-2.29.47-1.73-.88a.45.45,0,0,1,.66.37,2.13,2.13,0,0,0-.66-1.84c.71-.64,1.54,1.57,1.75,2.25.43-.7-3.3-9.3-4.11-10.39-.66-.13-1-4-.19-5s4.78-1.16,5.49-1.07c-.49-.24-.53-1-.66-1.6a2.33,2.33,0,0,1,1.13,1.21.87.87,0,0,0,.6-1.06C469,605.67,470.76,611.16,473.16,615.34Zm-23.3,12.29c.74.73.84,1.24.27,1.37-.06-.45-.17-.86-.27-1.37ZM456,613.78c.28-.43.45-.3.64,0a1.23,1.23,0,0,1-.64,0Zm2.4-3.24c-.79,1.26.64,1.2-.76,2.88a2.44,2.44,0,0,0-1.17-1.26c.48-1.71,1.83,1.63,1.1-1.64C458,610.74,458.26,610.8,458.41,610.54Zm-2-1a1.24,1.24,0,0,1,1.17-.7,2.54,2.54,0,0,1,.3.94A1.24,1.24,0,0,1,456.41,609.51ZM458,614.9c.88-.75.88-.75,0-.19-.08-.35.65-.84.78-1.26a2.82,2.82,0,0,1,.9,1.94c-2,.1.18-.21-.21,1.28C457.64,616.69,459.42,615.33,458,614.9Zm2.72,8.07c.45.18.06.45-.17.6a2.62,2.62,0,0,1,.17-.6Zm-2.3-12.43.06,0Zm1.3,4.85a.93.93,0,0,1,.43,1c-.45-.68-.3-.45-.43-1Zm2.49,10.17c-.64-.22-.68-.53-.24-.73.49.24.52.54.24.73Zm-1.41-7.47a.65.65,0,0,1-.12-.9c.19.28.23,1.07.12.9Zm4.53,24.17a.41.41,0,0,0,.26-.09A.41.41,0,0,1,465.32,642.26Z" transform="translate(-75.93 -167.22)"/>
    <path class="cls-1" d="M505.05,601.75c2.18,10-4.88,20-10.33,27.75-.94-.89,6.9-9.77,6.91-11.75-1.62,2.29-3.29,4.61-5.66,6.12-3.16,2.26-4.2.11-6.4,1.2-.05-1.83-3.89-2-4.51-4.62,1.33.29,2.59.1,2.22-1.28a4.71,4.71,0,0,0-.71-1.45,12.72,12.72,0,0,0,1.66,1.62c.74-2.26-.92,0-.37-2.1-1.27.19-1.66-1.62-2.1-2.13-.36.21-.61.43-.92.6-.13-.15-.27-.21-.4-.37,0,.06.14.06.18.12-.15-1.12.54-1.36.42-1.7-1.07.2-2.06-.11-1.08-1-.31-.36-.55-.33-1-.12a1.79,1.79,0,0,0,.13-1c-1,.55-1.1-.13-.8-.93a3.52,3.52,0,0,1-1.46-.35c-.19-.74.1-.81.59-.24-.26-.94-2.24-.85-1-2.1-.77-.06-2.65-.06-3.05-.43a1.48,1.48,0,0,0,.76-.56.64.64,0,0,0-.76.57c1.32,1.54,2.72,3.47,4.27,5.18a21.33,21.33,0,0,1-1.88-1.78c-1.79-1.87-4.45-3.61-5.8-5.39-.18-.21-2-3.42-2.34-3.45A23.43,23.43,0,0,0,469.82,614c-2.67-2.17,1.2-8.91,1.22-11.07s-.42-2.68-1.92-4.52c-.42-.71-2.73-2.66-1.91-3.37,1.4,1.93,2.74,3.91,4.37,5.81.64-.72-.1-2.41.66-1.73a27.35,27.35,0,0,0-2.87-4c.68-.14,2,1.26,2.53,1.59,1-.65-1.88-1.87-1.38-2.85a17.61,17.61,0,0,0,4.75-.41c2.92-1.7,4-5.38,7.48-6.6A11.71,11.71,0,0,1,490.6,588c1.46,1.07,3.36,5.26,3,7.3.58-.68,4.3-.21,5.29,0C502.27,595.91,504.24,597.79,505.05,601.75Zm-31.91-.59c-.48.06-.7-.19-.62-.62-.46.3-.57.58-.23,1.09A4.64,4.64,0,0,0,473.14,601.16Zm11.3,14.18a17.15,17.15,0,0,1-2.79-2.61c.86.78,1.9,1.68,2.79,2.62Zm.65,4.1c.62.09.62.09.76.78a2,2,0,0,1-.76-.78Zm1.48-1.72c-.67-.68-1.25-1.34-1.87-2,.05,0,.05,0,.14,0A17.9,17.9,0,0,1,486.57,617.72Zm-2-16.17c.29-.7,1.57-3,1.62-3l.09.1c-.23-.78,1.81-4.24-.71-4.57.34-.12.56-.49.78-.76a1.62,1.62,0,0,0-1.26,0c.07-.24,0-.38-.24-.6a8.07,8.07,0,0,1-1.26,1.35L484,594C481.77,595.9,480.41,601.18,484.57,601.55Zm.52-8.24a2.4,2.4,0,0,1-1,.64,1.74,1.74,0,0,1,1-.64Zm-1.9-6c-.67.58,1,.41,1.17.43a8.9,8.9,0,0,1-1.17-.43Zm2.52.34c.31-.27-.09-.73-.43-.71.13.25.31.46.43.71Zm.29-.61c.12.35.4.37.74.35,0-.39-.25-.5-.74-.35Zm10.74,18.33c-1.25.63-.61-.81-2.81-.36a3.84,3.84,0,0,0-2.08,1.34c-1.16,1.36-2,5.67.18,6.56,3.41,1.36,1.74-6.51,4.05-7.15C496.45,606,496.75,605.93,496.74,605.4Zm-.33-4.55c-1.6-.5-4.29,3.24-4.38,4.48,1.29-.48,4.43-2.55,5.21-2.15-.3-.46-1.3-1.21-.86-1.94a.56.56,0,0,0,.66.24C497.12,601,497,600.75,496.41,600.85Zm-1-.79c-.44-.52-1.49,1.28-1.56,1.52.47-.5,1.09-1,1.56-1.52Zm-.66-4.62-1.29-.15a1.6,1.6,0,0,1-.18.52C494,596,494.47,595.9,494.8,595.44Z" transform="translate(-75.93 -167.22)"/>
  </g>
</svg>
