<?xml version="1.0" standalone="no"?>
<svg xmlns="http://www.w3.org/2000/svg" width="300" height="300"><defs><clipPath id="clip-path-dot-color"><rect x="2" y="66" width="8" height="8" transform="rotate(0,6,70)"/><rect x="2" y="74" width="8" height="8" transform="rotate(0,6,78)"/><rect x="2" y="90" width="8" height="8" transform="rotate(0,6,94)"/><rect x="2" y="106" width="8" height="8" transform="rotate(0,6,110)"/><rect x="2" y="138" width="8" height="8" transform="rotate(0,6,142)"/><rect x="2" y="154" width="8" height="8" transform="rotate(0,6,158)"/><rect x="2" y="162" width="8" height="8" transform="rotate(0,6,166)"/><rect x="2" y="170" width="8" height="8" transform="rotate(0,6,174)"/><rect x="2" y="178" width="8" height="8" transform="rotate(0,6,182)"/><rect x="2" y="210" width="8" height="8" transform="rotate(0,6,214)"/><rect x="10" y="66" width="8" height="8" transform="rotate(0,14,70)"/><rect x="10" y="82" width="8" height="8" transform="rotate(0,14,86)"/><rect x="10" y="106" width="8" height="8" transform="rotate(0,14,110)"/><rect x="10" y="122" width="8" height="8" transform="rotate(0,14,126)"/><rect x="10" y="146" width="8" height="8" transform="rotate(0,14,150)"/><rect x="10" y="154" width="8" height="8" transform="rotate(0,14,158)"/><rect x="10" y="178" width="8" height="8" transform="rotate(0,14,182)"/><rect x="10" y="202" width="8" height="8" transform="rotate(0,14,206)"/><rect x="10" y="210" width="8" height="8" transform="rotate(0,14,214)"/><rect x="18" y="74" width="8" height="8" transform="rotate(0,22,78)"/><rect x="18" y="82" width="8" height="8" transform="rotate(0,22,86)"/><rect x="18" y="90" width="8" height="8" transform="rotate(0,22,94)"/><rect x="18" y="106" width="8" height="8" transform="rotate(0,22,110)"/><rect x="18" y="114" width="8" height="8" transform="rotate(0,22,118)"/><rect x="18" y="122" width="8" height="8" transform="rotate(0,22,126)"/><rect x="18" y="138" width="8" height="8" transform="rotate(0,22,142)"/><rect x="18" y="154" width="8" height="8" transform="rotate(0,22,158)"/><rect x="18" y="162" width="8" height="8" transform="rotate(0,22,166)"/><rect x="18" y="170" width="8" height="8" transform="rotate(0,22,174)"/><rect x="18" y="210" width="8" height="8" transform="rotate(0,22,214)"/><rect x="18" y="218" width="8" height="8" transform="rotate(0,22,222)"/><rect x="18" y="226" width="8" height="8" transform="rotate(0,22,230)"/><rect x="26" y="74" width="8" height="8" transform="rotate(0,30,78)"/><rect x="26" y="82" width="8" height="8" transform="rotate(0,30,86)"/><rect x="26" y="90" width="8" height="8" transform="rotate(0,30,94)"/><rect x="26" y="106" width="8" height="8" transform="rotate(0,30,110)"/><rect x="26" y="130" width="8" height="8" transform="rotate(0,30,134)"/><rect x="26" y="154" width="8" height="8" transform="rotate(0,30,158)"/><rect x="26" y="162" width="8" height="8" transform="rotate(0,30,166)"/><rect x="26" y="170" width="8" height="8" transform="rotate(0,30,174)"/><rect x="26" y="178" width="8" height="8" transform="rotate(0,30,182)"/><rect x="26" y="194" width="8" height="8" transform="rotate(0,30,198)"/><rect x="26" y="202" width="8" height="8" transform="rotate(0,30,206)"/><rect x="26" y="226" width="8" height="8" transform="rotate(0,30,230)"/><rect x="34" y="82" width="8" height="8" transform="rotate(0,38,86)"/><rect x="34" y="114" width="8" height="8" transform="rotate(0,38,118)"/><rect x="34" y="130" width="8" height="8" transform="rotate(0,38,134)"/><rect x="34" y="138" width="8" height="8" transform="rotate(0,38,142)"/><rect x="34" y="170" width="8" height="8" transform="rotate(0,38,174)"/><rect x="34" y="186" width="8" height="8" transform="rotate(0,38,190)"/><rect x="34" y="210" width="8" height="8" transform="rotate(0,38,214)"/><rect x="42" y="74" width="8" height="8" transform="rotate(0,46,78)"/><rect x="42" y="114" width="8" height="8" transform="rotate(0,46,118)"/><rect x="42" y="138" width="8" height="8" transform="rotate(0,46,142)"/><rect x="42" y="154" width="8" height="8" transform="rotate(0,46,158)"/><rect x="42" y="162" width="8" height="8" transform="rotate(0,46,166)"/><rect x="42" y="170" width="8" height="8" transform="rotate(0,46,174)"/><rect x="42" y="210" width="8" height="8" transform="rotate(0,46,214)"/><rect x="42" y="226" width="8" height="8" transform="rotate(0,46,230)"/><rect x="50" y="66" width="8" height="8" transform="rotate(0,54,70)"/><rect x="50" y="82" width="8" height="8" transform="rotate(0,54,86)"/><rect x="50" y="98" width="8" height="8" transform="rotate(0,54,102)"/><rect x="50" y="114" width="8" height="8" transform="rotate(0,54,118)"/><rect x="50" y="130" width="8" height="8" transform="rotate(0,54,134)"/><rect x="50" y="146" width="8" height="8" transform="rotate(0,54,150)"/><rect x="50" y="162" width="8" height="8" transform="rotate(0,54,166)"/><rect x="50" y="178" width="8" height="8" transform="rotate(0,54,182)"/><rect x="50" y="194" width="8" height="8" transform="rotate(0,54,198)"/><rect x="50" y="210" width="8" height="8" transform="rotate(0,54,214)"/><rect x="50" y="226" width="8" height="8" transform="rotate(0,54,230)"/><rect x="58" y="74" width="8" height="8" transform="rotate(0,62,78)"/><rect x="58" y="82" width="8" height="8" transform="rotate(0,62,86)"/><rect x="58" y="90" width="8" height="8" transform="rotate(0,62,94)"/><rect x="58" y="98" width="8" height="8" transform="rotate(0,62,102)"/><rect x="58" y="122" width="8" height="8" transform="rotate(0,62,126)"/><rect x="58" y="146" width="8" height="8" transform="rotate(0,62,150)"/><rect x="58" y="154" width="8" height="8" transform="rotate(0,62,158)"/><rect x="58" y="178" width="8" height="8" transform="rotate(0,62,182)"/><rect x="58" y="218" width="8" height="8" transform="rotate(0,62,222)"/><rect x="58" y="226" width="8" height="8" transform="rotate(0,62,230)"/><rect x="66" y="10" width="8" height="8" transform="rotate(0,70,14)"/><rect x="66" y="50" width="8" height="8" transform="rotate(0,70,54)"/><rect x="66" y="58" width="8" height="8" transform="rotate(0,70,62)"/><rect x="66" y="66" width="8" height="8" transform="rotate(0,70,70)"/><rect x="66" y="82" width="8" height="8" transform="rotate(0,70,86)"/><rect x="66" y="90" width="8" height="8" transform="rotate(0,70,94)"/><rect x="66" y="106" width="8" height="8" transform="rotate(0,70,110)"/><rect x="66" y="122" width="8" height="8" transform="rotate(0,70,126)"/><rect x="66" y="130" width="8" height="8" transform="rotate(0,70,134)"/><rect x="66" y="146" width="8" height="8" transform="rotate(0,70,150)"/><rect x="66" y="154" width="8" height="8" transform="rotate(0,70,158)"/><rect x="66" y="210" width="8" height="8" transform="rotate(0,70,214)"/><rect x="66" y="226" width="8" height="8" transform="rotate(0,70,230)"/><rect x="66" y="234" width="8" height="8" transform="rotate(0,70,238)"/><rect x="66" y="282" width="8" height="8" transform="rotate(0,70,286)"/><rect x="66" y="290" width="8" height="8" transform="rotate(0,70,294)"/><rect x="74" y="2" width="8" height="8" transform="rotate(0,78,6)"/><rect x="74" y="18" width="8" height="8" transform="rotate(0,78,22)"/><rect x="74" y="26" width="8" height="8" transform="rotate(0,78,30)"/><rect x="74" y="42" width="8" height="8" transform="rotate(0,78,46)"/><rect x="74" y="74" width="8" height="8" transform="rotate(0,78,78)"/><rect x="74" y="82" width="8" height="8" transform="rotate(0,78,86)"/><rect x="74" y="114" width="8" height="8" transform="rotate(0,78,118)"/><rect x="74" y="130" width="8" height="8" transform="rotate(0,78,134)"/><rect x="74" y="146" width="8" height="8" transform="rotate(0,78,150)"/><rect x="74" y="154" width="8" height="8" transform="rotate(0,78,158)"/><rect x="74" y="162" width="8" height="8" transform="rotate(0,78,166)"/><rect x="74" y="170" width="8" height="8" transform="rotate(0,78,174)"/><rect x="74" y="178" width="8" height="8" transform="rotate(0,78,182)"/><rect x="74" y="186" width="8" height="8" transform="rotate(0,78,190)"/><rect x="74" y="202" width="8" height="8" transform="rotate(0,78,206)"/><rect x="74" y="234" width="8" height="8" transform="rotate(0,78,238)"/><rect x="74" y="258" width="8" height="8" transform="rotate(0,78,262)"/><rect x="74" y="266" width="8" height="8" transform="rotate(0,78,270)"/><rect x="74" y="274" width="8" height="8" transform="rotate(0,78,278)"/><rect x="74" y="282" width="8" height="8" transform="rotate(0,78,286)"/><rect x="82" y="2" width="8" height="8" transform="rotate(0,86,6)"/><rect x="82" y="10" width="8" height="8" transform="rotate(0,86,14)"/><rect x="82" y="26" width="8" height="8" transform="rotate(0,86,30)"/><rect x="82" y="34" width="8" height="8" transform="rotate(0,86,38)"/><rect x="82" y="42" width="8" height="8" transform="rotate(0,86,46)"/><rect x="82" y="50" width="8" height="8" transform="rotate(0,86,54)"/><rect x="82" y="90" width="8" height="8" transform="rotate(0,86,94)"/><rect x="82" y="106" width="8" height="8" transform="rotate(0,86,110)"/><rect x="82" y="146" width="8" height="8" transform="rotate(0,86,150)"/><rect x="82" y="170" width="8" height="8" transform="rotate(0,86,174)"/><rect x="82" y="178" width="8" height="8" transform="rotate(0,86,182)"/><rect x="82" y="202" width="8" height="8" transform="rotate(0,86,206)"/><rect x="82" y="210" width="8" height="8" transform="rotate(0,86,214)"/><rect x="82" y="218" width="8" height="8" transform="rotate(0,86,222)"/><rect x="82" y="242" width="8" height="8" transform="rotate(0,86,246)"/><rect x="82" y="258" width="8" height="8" transform="rotate(0,86,262)"/><rect x="82" y="282" width="8" height="8" transform="rotate(0,86,286)"/><rect x="82" y="290" width="8" height="8" transform="rotate(0,86,294)"/><rect x="90" y="2" width="8" height="8" transform="rotate(0,94,6)"/><rect x="90" y="10" width="8" height="8" transform="rotate(0,94,14)"/><rect x="90" y="18" width="8" height="8" transform="rotate(0,94,22)"/><rect x="90" y="26" width="8" height="8" transform="rotate(0,94,30)"/><rect x="90" y="58" width="8" height="8" transform="rotate(0,94,62)"/><rect x="90" y="66" width="8" height="8" transform="rotate(0,94,70)"/><rect x="90" y="74" width="8" height="8" transform="rotate(0,94,78)"/><rect x="90" y="82" width="8" height="8" transform="rotate(0,94,86)"/><rect x="90" y="90" width="8" height="8" transform="rotate(0,94,94)"/><rect x="90" y="106" width="8" height="8" transform="rotate(0,94,110)"/><rect x="90" y="114" width="8" height="8" transform="rotate(0,94,118)"/><rect x="90" y="122" width="8" height="8" transform="rotate(0,94,126)"/><rect x="90" y="138" width="8" height="8" transform="rotate(0,94,142)"/><rect x="90" y="146" width="8" height="8" transform="rotate(0,94,150)"/><rect x="90" y="154" width="8" height="8" transform="rotate(0,94,158)"/><rect x="90" y="194" width="8" height="8" transform="rotate(0,94,198)"/><rect x="90" y="210" width="8" height="8" transform="rotate(0,94,214)"/><rect x="90" y="226" width="8" height="8" transform="rotate(0,94,230)"/><rect x="90" y="242" width="8" height="8" transform="rotate(0,94,246)"/><rect x="90" y="250" width="8" height="8" transform="rotate(0,94,254)"/><rect x="90" y="258" width="8" height="8" transform="rotate(0,94,262)"/><rect x="90" y="266" width="8" height="8" transform="rotate(0,94,270)"/><rect x="90" y="282" width="8" height="8" transform="rotate(0,94,286)"/><rect x="90" y="290" width="8" height="8" transform="rotate(0,94,294)"/><rect x="98" y="34" width="8" height="8" transform="rotate(0,102,38)"/><rect x="98" y="42" width="8" height="8" transform="rotate(0,102,46)"/><rect x="98" y="50" width="8" height="8" transform="rotate(0,102,54)"/><rect x="98" y="66" width="8" height="8" transform="rotate(0,102,70)"/><rect x="98" y="74" width="8" height="8" transform="rotate(0,102,78)"/><rect x="98" y="90" width="8" height="8" transform="rotate(0,102,94)"/><rect x="98" y="98" width="8" height="8" transform="rotate(0,102,102)"/><rect x="98" y="114" width="8" height="8" transform="rotate(0,102,118)"/><rect x="98" y="130" width="8" height="8" transform="rotate(0,102,134)"/><rect x="98" y="138" width="8" height="8" transform="rotate(0,102,142)"/><rect x="98" y="162" width="8" height="8" transform="rotate(0,102,166)"/><rect x="98" y="178" width="8" height="8" transform="rotate(0,102,182)"/><rect x="98" y="194" width="8" height="8" transform="rotate(0,102,198)"/><rect x="98" y="218" width="8" height="8" transform="rotate(0,102,222)"/><rect x="98" y="226" width="8" height="8" transform="rotate(0,102,230)"/><rect x="98" y="242" width="8" height="8" transform="rotate(0,102,246)"/><rect x="98" y="250" width="8" height="8" transform="rotate(0,102,254)"/><rect x="98" y="282" width="8" height="8" transform="rotate(0,102,286)"/><rect x="98" y="290" width="8" height="8" transform="rotate(0,102,294)"/><rect x="106" y="18" width="8" height="8" transform="rotate(0,110,22)"/><rect x="106" y="26" width="8" height="8" transform="rotate(0,110,30)"/><rect x="106" y="74" width="8" height="8" transform="rotate(0,110,78)"/><rect x="106" y="82" width="8" height="8" transform="rotate(0,110,86)"/><rect x="106" y="90" width="8" height="8" transform="rotate(0,110,94)"/><rect x="106" y="106" width="8" height="8" transform="rotate(0,110,110)"/><rect x="106" y="130" width="8" height="8" transform="rotate(0,110,134)"/><rect x="106" y="170" width="8" height="8" transform="rotate(0,110,174)"/><rect x="106" y="186" width="8" height="8" transform="rotate(0,110,190)"/><rect x="106" y="210" width="8" height="8" transform="rotate(0,110,214)"/><rect x="106" y="218" width="8" height="8" transform="rotate(0,110,222)"/><rect x="106" y="234" width="8" height="8" transform="rotate(0,110,238)"/><rect x="106" y="250" width="8" height="8" transform="rotate(0,110,254)"/><rect x="106" y="274" width="8" height="8" transform="rotate(0,110,278)"/><rect x="114" y="2" width="8" height="8" transform="rotate(0,118,6)"/><rect x="114" y="10" width="8" height="8" transform="rotate(0,118,14)"/><rect x="114" y="26" width="8" height="8" transform="rotate(0,118,30)"/><rect x="114" y="50" width="8" height="8" transform="rotate(0,118,54)"/><rect x="114" y="58" width="8" height="8" transform="rotate(0,118,62)"/><rect x="114" y="74" width="8" height="8" transform="rotate(0,118,78)"/><rect x="114" y="82" width="8" height="8" transform="rotate(0,118,86)"/><rect x="114" y="90" width="8" height="8" transform="rotate(0,118,94)"/><rect x="114" y="98" width="8" height="8" transform="rotate(0,118,102)"/><rect x="114" y="114" width="8" height="8" transform="rotate(0,118,118)"/><rect x="114" y="122" width="8" height="8" transform="rotate(0,118,126)"/><rect x="114" y="138" width="8" height="8" transform="rotate(0,118,142)"/><rect x="114" y="210" width="8" height="8" transform="rotate(0,118,214)"/><rect x="114" y="218" width="8" height="8" transform="rotate(0,118,222)"/><rect x="114" y="226" width="8" height="8" transform="rotate(0,118,230)"/><rect x="114" y="242" width="8" height="8" transform="rotate(0,118,246)"/><rect x="114" y="258" width="8" height="8" transform="rotate(0,118,262)"/><rect x="114" y="266" width="8" height="8" transform="rotate(0,118,270)"/><rect x="114" y="282" width="8" height="8" transform="rotate(0,118,286)"/><rect x="114" y="290" width="8" height="8" transform="rotate(0,118,294)"/><rect x="122" y="10" width="8" height="8" transform="rotate(0,126,14)"/><rect x="122" y="26" width="8" height="8" transform="rotate(0,126,30)"/><rect x="122" y="34" width="8" height="8" transform="rotate(0,126,38)"/><rect x="122" y="58" width="8" height="8" transform="rotate(0,126,62)"/><rect x="122" y="74" width="8" height="8" transform="rotate(0,126,78)"/><rect x="122" y="98" width="8" height="8" transform="rotate(0,126,102)"/><rect x="122" y="162" width="8" height="8" transform="rotate(0,126,166)"/><rect x="122" y="178" width="8" height="8" transform="rotate(0,126,182)"/><rect x="122" y="186" width="8" height="8" transform="rotate(0,126,190)"/><rect x="122" y="234" width="8" height="8" transform="rotate(0,126,238)"/><rect x="122" y="242" width="8" height="8" transform="rotate(0,126,246)"/><rect x="122" y="250" width="8" height="8" transform="rotate(0,126,254)"/><rect x="122" y="266" width="8" height="8" transform="rotate(0,126,270)"/><rect x="122" y="274" width="8" height="8" transform="rotate(0,126,278)"/><rect x="122" y="282" width="8" height="8" transform="rotate(0,126,286)"/><rect x="122" y="290" width="8" height="8" transform="rotate(0,126,294)"/><rect x="130" y="2" width="8" height="8" transform="rotate(0,134,6)"/><rect x="130" y="10" width="8" height="8" transform="rotate(0,134,14)"/><rect x="130" y="34" width="8" height="8" transform="rotate(0,134,38)"/><rect x="130" y="42" width="8" height="8" transform="rotate(0,134,46)"/><rect x="130" y="50" width="8" height="8" transform="rotate(0,134,54)"/><rect x="130" y="58" width="8" height="8" transform="rotate(0,134,62)"/><rect x="130" y="74" width="8" height="8" transform="rotate(0,134,78)"/><rect x="130" y="90" width="8" height="8" transform="rotate(0,134,94)"/><rect x="130" y="106" width="8" height="8" transform="rotate(0,134,110)"/><rect x="130" y="114" width="8" height="8" transform="rotate(0,134,118)"/><rect x="130" y="122" width="8" height="8" transform="rotate(0,134,126)"/><rect x="130" y="146" width="8" height="8" transform="rotate(0,134,150)"/><rect x="130" y="154" width="8" height="8" transform="rotate(0,134,158)"/><rect x="130" y="170" width="8" height="8" transform="rotate(0,134,174)"/><rect x="130" y="178" width="8" height="8" transform="rotate(0,134,182)"/><rect x="130" y="186" width="8" height="8" transform="rotate(0,134,190)"/><rect x="130" y="202" width="8" height="8" transform="rotate(0,134,206)"/><rect x="130" y="210" width="8" height="8" transform="rotate(0,134,214)"/><rect x="130" y="226" width="8" height="8" transform="rotate(0,134,230)"/><rect x="130" y="234" width="8" height="8" transform="rotate(0,134,238)"/><rect x="130" y="242" width="8" height="8" transform="rotate(0,134,246)"/><rect x="130" y="258" width="8" height="8" transform="rotate(0,134,262)"/><rect x="130" y="274" width="8" height="8" transform="rotate(0,134,278)"/><rect x="130" y="290" width="8" height="8" transform="rotate(0,134,294)"/><rect x="138" y="18" width="8" height="8" transform="rotate(0,142,22)"/><rect x="138" y="34" width="8" height="8" transform="rotate(0,142,38)"/><rect x="138" y="58" width="8" height="8" transform="rotate(0,142,62)"/><rect x="138" y="90" width="8" height="8" transform="rotate(0,142,94)"/><rect x="138" y="114" width="8" height="8" transform="rotate(0,142,118)"/><rect x="138" y="138" width="8" height="8" transform="rotate(0,142,142)"/><rect x="138" y="162" width="8" height="8" transform="rotate(0,142,166)"/><rect x="138" y="170" width="8" height="8" transform="rotate(0,142,174)"/><rect x="138" y="218" width="8" height="8" transform="rotate(0,142,222)"/><rect x="138" y="226" width="8" height="8" transform="rotate(0,142,230)"/><rect x="138" y="234" width="8" height="8" transform="rotate(0,142,238)"/><rect x="138" y="250" width="8" height="8" transform="rotate(0,142,254)"/><rect x="146" y="18" width="8" height="8" transform="rotate(0,150,22)"/><rect x="146" y="26" width="8" height="8" transform="rotate(0,150,30)"/><rect x="146" y="34" width="8" height="8" transform="rotate(0,150,38)"/><rect x="146" y="42" width="8" height="8" transform="rotate(0,150,46)"/><rect x="146" y="50" width="8" height="8" transform="rotate(0,150,54)"/><rect x="146" y="58" width="8" height="8" transform="rotate(0,150,62)"/><rect x="146" y="98" width="8" height="8" transform="rotate(0,150,102)"/><rect x="146" y="106" width="8" height="8" transform="rotate(0,150,110)"/><rect x="146" y="146" width="8" height="8" transform="rotate(0,150,150)"/><rect x="146" y="154" width="8" height="8" transform="rotate(0,150,158)"/><rect x="146" y="162" width="8" height="8" transform="rotate(0,150,166)"/><rect x="146" y="186" width="8" height="8" transform="rotate(0,150,190)"/><rect x="146" y="194" width="8" height="8" transform="rotate(0,150,198)"/><rect x="146" y="202" width="8" height="8" transform="rotate(0,150,206)"/><rect x="146" y="210" width="8" height="8" transform="rotate(0,150,214)"/><rect x="146" y="218" width="8" height="8" transform="rotate(0,150,222)"/><rect x="146" y="226" width="8" height="8" transform="rotate(0,150,230)"/><rect x="146" y="234" width="8" height="8" transform="rotate(0,150,238)"/><rect x="146" y="242" width="8" height="8" transform="rotate(0,150,246)"/><rect x="146" y="258" width="8" height="8" transform="rotate(0,150,262)"/><rect x="146" y="266" width="8" height="8" transform="rotate(0,150,270)"/><rect x="146" y="290" width="8" height="8" transform="rotate(0,150,294)"/><rect x="154" y="10" width="8" height="8" transform="rotate(0,158,14)"/><rect x="154" y="18" width="8" height="8" transform="rotate(0,158,22)"/><rect x="154" y="26" width="8" height="8" transform="rotate(0,158,30)"/><rect x="154" y="34" width="8" height="8" transform="rotate(0,158,38)"/><rect x="154" y="58" width="8" height="8" transform="rotate(0,158,62)"/><rect x="154" y="66" width="8" height="8" transform="rotate(0,158,70)"/><rect x="154" y="82" width="8" height="8" transform="rotate(0,158,86)"/><rect x="154" y="98" width="8" height="8" transform="rotate(0,158,102)"/><rect x="154" y="106" width="8" height="8" transform="rotate(0,158,110)"/><rect x="154" y="122" width="8" height="8" transform="rotate(0,158,126)"/><rect x="154" y="138" width="8" height="8" transform="rotate(0,158,142)"/><rect x="154" y="154" width="8" height="8" transform="rotate(0,158,158)"/><rect x="154" y="162" width="8" height="8" transform="rotate(0,158,166)"/><rect x="154" y="218" width="8" height="8" transform="rotate(0,158,222)"/><rect x="154" y="226" width="8" height="8" transform="rotate(0,158,230)"/><rect x="154" y="234" width="8" height="8" transform="rotate(0,158,238)"/><rect x="154" y="250" width="8" height="8" transform="rotate(0,158,254)"/><rect x="154" y="266" width="8" height="8" transform="rotate(0,158,270)"/><rect x="154" y="290" width="8" height="8" transform="rotate(0,158,294)"/><rect x="162" y="10" width="8" height="8" transform="rotate(0,166,14)"/><rect x="162" y="50" width="8" height="8" transform="rotate(0,166,54)"/><rect x="162" y="58" width="8" height="8" transform="rotate(0,166,62)"/><rect x="162" y="82" width="8" height="8" transform="rotate(0,166,86)"/><rect x="162" y="90" width="8" height="8" transform="rotate(0,166,94)"/><rect x="162" y="98" width="8" height="8" transform="rotate(0,166,102)"/><rect x="162" y="106" width="8" height="8" transform="rotate(0,166,110)"/><rect x="162" y="154" width="8" height="8" transform="rotate(0,166,158)"/><rect x="162" y="162" width="8" height="8" transform="rotate(0,166,166)"/><rect x="162" y="178" width="8" height="8" transform="rotate(0,166,182)"/><rect x="162" y="194" width="8" height="8" transform="rotate(0,166,198)"/><rect x="162" y="202" width="8" height="8" transform="rotate(0,166,206)"/><rect x="162" y="210" width="8" height="8" transform="rotate(0,166,214)"/><rect x="162" y="234" width="8" height="8" transform="rotate(0,166,238)"/><rect x="162" y="242" width="8" height="8" transform="rotate(0,166,246)"/><rect x="162" y="250" width="8" height="8" transform="rotate(0,166,254)"/><rect x="162" y="258" width="8" height="8" transform="rotate(0,166,262)"/><rect x="162" y="266" width="8" height="8" transform="rotate(0,166,270)"/><rect x="162" y="274" width="8" height="8" transform="rotate(0,166,278)"/><rect x="162" y="282" width="8" height="8" transform="rotate(0,166,286)"/><rect x="170" y="2" width="8" height="8" transform="rotate(0,174,6)"/><rect x="170" y="26" width="8" height="8" transform="rotate(0,174,30)"/><rect x="170" y="34" width="8" height="8" transform="rotate(0,174,38)"/><rect x="170" y="58" width="8" height="8" transform="rotate(0,174,62)"/><rect x="170" y="122" width="8" height="8" transform="rotate(0,174,126)"/><rect x="170" y="154" width="8" height="8" transform="rotate(0,174,158)"/><rect x="170" y="170" width="8" height="8" transform="rotate(0,174,174)"/><rect x="170" y="186" width="8" height="8" transform="rotate(0,174,190)"/><rect x="170" y="210" width="8" height="8" transform="rotate(0,174,214)"/><rect x="170" y="218" width="8" height="8" transform="rotate(0,174,222)"/><rect x="170" y="226" width="8" height="8" transform="rotate(0,174,230)"/><rect x="170" y="250" width="8" height="8" transform="rotate(0,174,254)"/><rect x="170" y="258" width="8" height="8" transform="rotate(0,174,262)"/><rect x="170" y="266" width="8" height="8" transform="rotate(0,174,270)"/><rect x="170" y="274" width="8" height="8" transform="rotate(0,174,278)"/><rect x="178" y="18" width="8" height="8" transform="rotate(0,182,22)"/><rect x="178" y="34" width="8" height="8" transform="rotate(0,182,38)"/><rect x="178" y="42" width="8" height="8" transform="rotate(0,182,46)"/><rect x="178" y="50" width="8" height="8" transform="rotate(0,182,54)"/><rect x="178" y="90" width="8" height="8" transform="rotate(0,182,94)"/><rect x="178" y="106" width="8" height="8" transform="rotate(0,182,110)"/><rect x="178" y="114" width="8" height="8" transform="rotate(0,182,118)"/><rect x="178" y="130" width="8" height="8" transform="rotate(0,182,134)"/><rect x="178" y="162" width="8" height="8" transform="rotate(0,182,166)"/><rect x="178" y="170" width="8" height="8" transform="rotate(0,182,174)"/><rect x="178" y="178" width="8" height="8" transform="rotate(0,182,182)"/><rect x="178" y="194" width="8" height="8" transform="rotate(0,182,198)"/><rect x="178" y="210" width="8" height="8" transform="rotate(0,182,214)"/><rect x="178" y="218" width="8" height="8" transform="rotate(0,182,222)"/><rect x="178" y="242" width="8" height="8" transform="rotate(0,182,246)"/><rect x="178" y="266" width="8" height="8" transform="rotate(0,182,270)"/><rect x="178" y="282" width="8" height="8" transform="rotate(0,182,286)"/><rect x="178" y="290" width="8" height="8" transform="rotate(0,182,294)"/><rect x="186" y="18" width="8" height="8" transform="rotate(0,190,22)"/><rect x="186" y="34" width="8" height="8" transform="rotate(0,190,38)"/><rect x="186" y="66" width="8" height="8" transform="rotate(0,190,70)"/><rect x="186" y="74" width="8" height="8" transform="rotate(0,190,78)"/><rect x="186" y="98" width="8" height="8" transform="rotate(0,190,102)"/><rect x="186" y="106" width="8" height="8" transform="rotate(0,190,110)"/><rect x="186" y="114" width="8" height="8" transform="rotate(0,190,118)"/><rect x="186" y="122" width="8" height="8" transform="rotate(0,190,126)"/><rect x="186" y="130" width="8" height="8" transform="rotate(0,190,134)"/><rect x="186" y="138" width="8" height="8" transform="rotate(0,190,142)"/><rect x="186" y="146" width="8" height="8" transform="rotate(0,190,150)"/><rect x="186" y="154" width="8" height="8" transform="rotate(0,190,158)"/><rect x="186" y="162" width="8" height="8" transform="rotate(0,190,166)"/><rect x="186" y="178" width="8" height="8" transform="rotate(0,190,182)"/><rect x="186" y="186" width="8" height="8" transform="rotate(0,190,190)"/><rect x="186" y="218" width="8" height="8" transform="rotate(0,190,222)"/><rect x="186" y="242" width="8" height="8" transform="rotate(0,190,246)"/><rect x="186" y="250" width="8" height="8" transform="rotate(0,190,254)"/><rect x="186" y="266" width="8" height="8" transform="rotate(0,190,270)"/><rect x="186" y="282" width="8" height="8" transform="rotate(0,190,286)"/><rect x="186" y="290" width="8" height="8" transform="rotate(0,190,294)"/><rect x="194" y="34" width="8" height="8" transform="rotate(0,198,38)"/><rect x="194" y="42" width="8" height="8" transform="rotate(0,198,46)"/><rect x="194" y="50" width="8" height="8" transform="rotate(0,198,54)"/><rect x="194" y="74" width="8" height="8" transform="rotate(0,198,78)"/><rect x="194" y="82" width="8" height="8" transform="rotate(0,198,86)"/><rect x="194" y="106" width="8" height="8" transform="rotate(0,198,110)"/><rect x="194" y="138" width="8" height="8" transform="rotate(0,198,142)"/><rect x="194" y="194" width="8" height="8" transform="rotate(0,198,198)"/><rect x="194" y="202" width="8" height="8" transform="rotate(0,198,206)"/><rect x="194" y="242" width="8" height="8" transform="rotate(0,198,246)"/><rect x="194" y="250" width="8" height="8" transform="rotate(0,198,254)"/><rect x="194" y="258" width="8" height="8" transform="rotate(0,198,262)"/><rect x="194" y="266" width="8" height="8" transform="rotate(0,198,270)"/><rect x="194" y="282" width="8" height="8" transform="rotate(0,198,286)"/><rect x="202" y="2" width="8" height="8" transform="rotate(0,206,6)"/><rect x="202" y="18" width="8" height="8" transform="rotate(0,206,22)"/><rect x="202" y="58" width="8" height="8" transform="rotate(0,206,62)"/><rect x="202" y="90" width="8" height="8" transform="rotate(0,206,94)"/><rect x="202" y="114" width="8" height="8" transform="rotate(0,206,118)"/><rect x="202" y="138" width="8" height="8" transform="rotate(0,206,142)"/><rect x="202" y="162" width="8" height="8" transform="rotate(0,206,166)"/><rect x="202" y="170" width="8" height="8" transform="rotate(0,206,174)"/><rect x="202" y="186" width="8" height="8" transform="rotate(0,206,190)"/><rect x="202" y="218" width="8" height="8" transform="rotate(0,206,222)"/><rect x="202" y="226" width="8" height="8" transform="rotate(0,206,230)"/><rect x="202" y="242" width="8" height="8" transform="rotate(0,206,246)"/><rect x="202" y="250" width="8" height="8" transform="rotate(0,206,254)"/><rect x="202" y="266" width="8" height="8" transform="rotate(0,206,270)"/><rect x="210" y="2" width="8" height="8" transform="rotate(0,214,6)"/><rect x="210" y="18" width="8" height="8" transform="rotate(0,214,22)"/><rect x="210" y="26" width="8" height="8" transform="rotate(0,214,30)"/><rect x="210" y="50" width="8" height="8" transform="rotate(0,214,54)"/><rect x="210" y="66" width="8" height="8" transform="rotate(0,214,70)"/><rect x="210" y="114" width="8" height="8" transform="rotate(0,214,118)"/><rect x="210" y="122" width="8" height="8" transform="rotate(0,214,126)"/><rect x="210" y="162" width="8" height="8" transform="rotate(0,214,166)"/><rect x="210" y="170" width="8" height="8" transform="rotate(0,214,174)"/><rect x="210" y="178" width="8" height="8" transform="rotate(0,214,182)"/><rect x="210" y="194" width="8" height="8" transform="rotate(0,214,198)"/><rect x="210" y="218" width="8" height="8" transform="rotate(0,214,222)"/><rect x="210" y="226" width="8" height="8" transform="rotate(0,214,230)"/><rect x="210" y="242" width="8" height="8" transform="rotate(0,214,246)"/><rect x="210" y="250" width="8" height="8" transform="rotate(0,214,254)"/><rect x="210" y="258" width="8" height="8" transform="rotate(0,214,262)"/><rect x="210" y="274" width="8" height="8" transform="rotate(0,214,278)"/><rect x="210" y="282" width="8" height="8" transform="rotate(0,214,286)"/><rect x="210" y="290" width="8" height="8" transform="rotate(0,214,294)"/><rect x="218" y="2" width="8" height="8" transform="rotate(0,222,6)"/><rect x="218" y="34" width="8" height="8" transform="rotate(0,222,38)"/><rect x="218" y="42" width="8" height="8" transform="rotate(0,222,46)"/><rect x="218" y="82" width="8" height="8" transform="rotate(0,222,86)"/><rect x="218" y="90" width="8" height="8" transform="rotate(0,222,94)"/><rect x="218" y="98" width="8" height="8" transform="rotate(0,222,102)"/><rect x="218" y="106" width="8" height="8" transform="rotate(0,222,110)"/><rect x="218" y="114" width="8" height="8" transform="rotate(0,222,118)"/><rect x="218" y="122" width="8" height="8" transform="rotate(0,222,126)"/><rect x="218" y="130" width="8" height="8" transform="rotate(0,222,134)"/><rect x="218" y="154" width="8" height="8" transform="rotate(0,222,158)"/><rect x="218" y="186" width="8" height="8" transform="rotate(0,222,190)"/><rect x="218" y="210" width="8" height="8" transform="rotate(0,222,214)"/><rect x="218" y="234" width="8" height="8" transform="rotate(0,222,238)"/><rect x="218" y="250" width="8" height="8" transform="rotate(0,222,254)"/><rect x="218" y="274" width="8" height="8" transform="rotate(0,222,278)"/><rect x="218" y="282" width="8" height="8" transform="rotate(0,222,286)"/><rect x="218" y="290" width="8" height="8" transform="rotate(0,222,294)"/><rect x="226" y="2" width="8" height="8" transform="rotate(0,230,6)"/><rect x="226" y="26" width="8" height="8" transform="rotate(0,230,30)"/><rect x="226" y="34" width="8" height="8" transform="rotate(0,230,38)"/><rect x="226" y="42" width="8" height="8" transform="rotate(0,230,46)"/><rect x="226" y="50" width="8" height="8" transform="rotate(0,230,54)"/><rect x="226" y="58" width="8" height="8" transform="rotate(0,230,62)"/><rect x="226" y="66" width="8" height="8" transform="rotate(0,230,70)"/><rect x="226" y="82" width="8" height="8" transform="rotate(0,230,86)"/><rect x="226" y="106" width="8" height="8" transform="rotate(0,230,110)"/><rect x="226" y="122" width="8" height="8" transform="rotate(0,230,126)"/><rect x="226" y="130" width="8" height="8" transform="rotate(0,230,134)"/><rect x="226" y="162" width="8" height="8" transform="rotate(0,230,166)"/><rect x="226" y="178" width="8" height="8" transform="rotate(0,230,182)"/><rect x="226" y="186" width="8" height="8" transform="rotate(0,230,190)"/><rect x="226" y="194" width="8" height="8" transform="rotate(0,230,198)"/><rect x="226" y="202" width="8" height="8" transform="rotate(0,230,206)"/><rect x="226" y="210" width="8" height="8" transform="rotate(0,230,214)"/><rect x="226" y="226" width="8" height="8" transform="rotate(0,230,230)"/><rect x="226" y="234" width="8" height="8" transform="rotate(0,230,238)"/><rect x="226" y="242" width="8" height="8" transform="rotate(0,230,246)"/><rect x="226" y="250" width="8" height="8" transform="rotate(0,230,254)"/><rect x="226" y="258" width="8" height="8" transform="rotate(0,230,262)"/><rect x="226" y="266" width="8" height="8" transform="rotate(0,230,270)"/><rect x="226" y="274" width="8" height="8" transform="rotate(0,230,278)"/><rect x="226" y="282" width="8" height="8" transform="rotate(0,230,286)"/><rect x="234" y="66" width="8" height="8" transform="rotate(0,238,70)"/><rect x="234" y="74" width="8" height="8" transform="rotate(0,238,78)"/><rect x="234" y="90" width="8" height="8" transform="rotate(0,238,94)"/><rect x="234" y="98" width="8" height="8" transform="rotate(0,238,102)"/><rect x="234" y="138" width="8" height="8" transform="rotate(0,238,142)"/><rect x="234" y="146" width="8" height="8" transform="rotate(0,238,150)"/><rect x="234" y="162" width="8" height="8" transform="rotate(0,238,166)"/><rect x="234" y="178" width="8" height="8" transform="rotate(0,238,182)"/><rect x="234" y="186" width="8" height="8" transform="rotate(0,238,190)"/><rect x="234" y="202" width="8" height="8" transform="rotate(0,238,206)"/><rect x="234" y="210" width="8" height="8" transform="rotate(0,238,214)"/><rect x="234" y="226" width="8" height="8" transform="rotate(0,238,230)"/><rect x="234" y="258" width="8" height="8" transform="rotate(0,238,262)"/><rect x="234" y="266" width="8" height="8" transform="rotate(0,238,270)"/><rect x="242" y="66" width="8" height="8" transform="rotate(0,246,70)"/><rect x="242" y="74" width="8" height="8" transform="rotate(0,246,78)"/><rect x="242" y="98" width="8" height="8" transform="rotate(0,246,102)"/><rect x="242" y="106" width="8" height="8" transform="rotate(0,246,110)"/><rect x="242" y="122" width="8" height="8" transform="rotate(0,246,126)"/><rect x="242" y="130" width="8" height="8" transform="rotate(0,246,134)"/><rect x="242" y="138" width="8" height="8" transform="rotate(0,246,142)"/><rect x="242" y="146" width="8" height="8" transform="rotate(0,246,150)"/><rect x="242" y="162" width="8" height="8" transform="rotate(0,246,166)"/><rect x="242" y="170" width="8" height="8" transform="rotate(0,246,174)"/><rect x="242" y="186" width="8" height="8" transform="rotate(0,246,190)"/><rect x="242" y="194" width="8" height="8" transform="rotate(0,246,198)"/><rect x="242" y="226" width="8" height="8" transform="rotate(0,246,230)"/><rect x="242" y="242" width="8" height="8" transform="rotate(0,246,246)"/><rect x="242" y="258" width="8" height="8" transform="rotate(0,246,262)"/><rect x="242" y="266" width="8" height="8" transform="rotate(0,246,270)"/><rect x="242" y="274" width="8" height="8" transform="rotate(0,246,278)"/><rect x="242" y="290" width="8" height="8" transform="rotate(0,246,294)"/><rect x="250" y="74" width="8" height="8" transform="rotate(0,254,78)"/><rect x="250" y="90" width="8" height="8" transform="rotate(0,254,94)"/><rect x="250" y="106" width="8" height="8" transform="rotate(0,254,110)"/><rect x="250" y="114" width="8" height="8" transform="rotate(0,254,118)"/><rect x="250" y="138" width="8" height="8" transform="rotate(0,254,142)"/><rect x="250" y="178" width="8" height="8" transform="rotate(0,254,182)"/><rect x="250" y="186" width="8" height="8" transform="rotate(0,254,190)"/><rect x="250" y="194" width="8" height="8" transform="rotate(0,254,198)"/><rect x="250" y="218" width="8" height="8" transform="rotate(0,254,222)"/><rect x="250" y="226" width="8" height="8" transform="rotate(0,254,230)"/><rect x="250" y="258" width="8" height="8" transform="rotate(0,254,262)"/><rect x="250" y="266" width="8" height="8" transform="rotate(0,254,270)"/><rect x="250" y="290" width="8" height="8" transform="rotate(0,254,294)"/><rect x="258" y="74" width="8" height="8" transform="rotate(0,262,78)"/><rect x="258" y="90" width="8" height="8" transform="rotate(0,262,94)"/><rect x="258" y="122" width="8" height="8" transform="rotate(0,262,126)"/><rect x="258" y="130" width="8" height="8" transform="rotate(0,262,134)"/><rect x="258" y="154" width="8" height="8" transform="rotate(0,262,158)"/><rect x="258" y="202" width="8" height="8" transform="rotate(0,262,206)"/><rect x="258" y="210" width="8" height="8" transform="rotate(0,262,214)"/><rect x="258" y="218" width="8" height="8" transform="rotate(0,262,222)"/><rect x="258" y="226" width="8" height="8" transform="rotate(0,262,230)"/><rect x="258" y="234" width="8" height="8" transform="rotate(0,262,238)"/><rect x="258" y="242" width="8" height="8" transform="rotate(0,262,246)"/><rect x="258" y="250" width="8" height="8" transform="rotate(0,262,254)"/><rect x="258" y="258" width="8" height="8" transform="rotate(0,262,262)"/><rect x="258" y="274" width="8" height="8" transform="rotate(0,262,278)"/><rect x="258" y="282" width="8" height="8" transform="rotate(0,262,286)"/><rect x="258" y="290" width="8" height="8" transform="rotate(0,262,294)"/><rect x="266" y="82" width="8" height="8" transform="rotate(0,270,86)"/><rect x="266" y="98" width="8" height="8" transform="rotate(0,270,102)"/><rect x="266" y="130" width="8" height="8" transform="rotate(0,270,134)"/><rect x="266" y="162" width="8" height="8" transform="rotate(0,270,166)"/><rect x="266" y="186" width="8" height="8" transform="rotate(0,270,190)"/><rect x="266" y="210" width="8" height="8" transform="rotate(0,270,214)"/><rect x="266" y="218" width="8" height="8" transform="rotate(0,270,222)"/><rect x="266" y="242" width="8" height="8" transform="rotate(0,270,246)"/><rect x="266" y="266" width="8" height="8" transform="rotate(0,270,270)"/><rect x="266" y="282" width="8" height="8" transform="rotate(0,270,286)"/><rect x="274" y="74" width="8" height="8" transform="rotate(0,278,78)"/><rect x="274" y="90" width="8" height="8" transform="rotate(0,278,94)"/><rect x="274" y="106" width="8" height="8" transform="rotate(0,278,110)"/><rect x="274" y="114" width="8" height="8" transform="rotate(0,278,118)"/><rect x="274" y="130" width="8" height="8" transform="rotate(0,278,134)"/><rect x="274" y="138" width="8" height="8" transform="rotate(0,278,142)"/><rect x="274" y="146" width="8" height="8" transform="rotate(0,278,150)"/><rect x="274" y="162" width="8" height="8" transform="rotate(0,278,166)"/><rect x="274" y="178" width="8" height="8" transform="rotate(0,278,182)"/><rect x="274" y="226" width="8" height="8" transform="rotate(0,278,230)"/><rect x="274" y="234" width="8" height="8" transform="rotate(0,278,238)"/><rect x="274" y="266" width="8" height="8" transform="rotate(0,278,270)"/><rect x="274" y="290" width="8" height="8" transform="rotate(0,278,294)"/><rect x="282" y="66" width="8" height="8" transform="rotate(0,286,70)"/><rect x="282" y="74" width="8" height="8" transform="rotate(0,286,78)"/><rect x="282" y="82" width="8" height="8" transform="rotate(0,286,86)"/><rect x="282" y="90" width="8" height="8" transform="rotate(0,286,94)"/><rect x="282" y="106" width="8" height="8" transform="rotate(0,286,110)"/><rect x="282" y="130" width="8" height="8" transform="rotate(0,286,134)"/><rect x="282" y="162" width="8" height="8" transform="rotate(0,286,166)"/><rect x="282" y="210" width="8" height="8" transform="rotate(0,286,214)"/><rect x="282" y="226" width="8" height="8" transform="rotate(0,286,230)"/><rect x="282" y="234" width="8" height="8" transform="rotate(0,286,238)"/><rect x="282" y="242" width="8" height="8" transform="rotate(0,286,246)"/><rect x="282" y="266" width="8" height="8" transform="rotate(0,286,270)"/><rect x="282" y="290" width="8" height="8" transform="rotate(0,286,294)"/><rect x="290" y="82" width="8" height="8" transform="rotate(0,294,86)"/><rect x="290" y="90" width="8" height="8" transform="rotate(0,294,94)"/><rect x="290" y="106" width="8" height="8" transform="rotate(0,294,110)"/><rect x="290" y="114" width="8" height="8" transform="rotate(0,294,118)"/><rect x="290" y="122" width="8" height="8" transform="rotate(0,294,126)"/><rect x="290" y="138" width="8" height="8" transform="rotate(0,294,142)"/><rect x="290" y="162" width="8" height="8" transform="rotate(0,294,166)"/><rect x="290" y="186" width="8" height="8" transform="rotate(0,294,190)"/><rect x="290" y="194" width="8" height="8" transform="rotate(0,294,198)"/><rect x="290" y="218" width="8" height="8" transform="rotate(0,294,222)"/><rect x="290" y="226" width="8" height="8" transform="rotate(0,294,230)"/><rect x="290" y="242" width="8" height="8" transform="rotate(0,294,246)"/><rect x="290" y="250" width="8" height="8" transform="rotate(0,294,254)"/><rect x="290" y="266" width="8" height="8" transform="rotate(0,294,270)"/><rect x="290" y="290" width="8" height="8" transform="rotate(0,294,294)"/><path clip-rule="evenodd" d="M 2 2v 56h 56v -56zM 10 10h 40v 40h -40z" transform="rotate(0,30,30)"/><rect x="18" y="18" width="8" height="8" transform="rotate(0,22,22)"/><rect x="18" y="26" width="8" height="8" transform="rotate(0,22,30)"/><rect x="18" y="34" width="8" height="8" transform="rotate(0,22,38)"/><rect x="26" y="18" width="8" height="8" transform="rotate(0,30,22)"/><rect x="26" y="26" width="8" height="8" transform="rotate(0,30,30)"/><rect x="26" y="34" width="8" height="8" transform="rotate(0,30,38)"/><rect x="34" y="18" width="8" height="8" transform="rotate(0,38,22)"/><rect x="34" y="26" width="8" height="8" transform="rotate(0,38,30)"/><rect x="34" y="34" width="8" height="8" transform="rotate(0,38,38)"/><path clip-rule="evenodd" d="M 242 2v 56h 56v -56zM 250 10h 40v 40h -40z" transform="rotate(90,270,30)"/><rect x="258" y="18" width="8" height="8" transform="rotate(0,262,22)"/><rect x="258" y="26" width="8" height="8" transform="rotate(0,262,30)"/><rect x="258" y="34" width="8" height="8" transform="rotate(0,262,38)"/><rect x="266" y="18" width="8" height="8" transform="rotate(0,270,22)"/><rect x="266" y="26" width="8" height="8" transform="rotate(0,270,30)"/><rect x="266" y="34" width="8" height="8" transform="rotate(0,270,38)"/><rect x="274" y="18" width="8" height="8" transform="rotate(0,278,22)"/><rect x="274" y="26" width="8" height="8" transform="rotate(0,278,30)"/><rect x="274" y="34" width="8" height="8" transform="rotate(0,278,38)"/><path clip-rule="evenodd" d="M 2 242v 56h 56v -56zM 10 250h 40v 40h -40z" transform="rotate(-90,30,270)"/><rect x="18" y="258" width="8" height="8" transform="rotate(0,22,262)"/><rect x="18" y="266" width="8" height="8" transform="rotate(0,22,270)"/><rect x="18" y="274" width="8" height="8" transform="rotate(0,22,278)"/><rect x="26" y="258" width="8" height="8" transform="rotate(0,30,262)"/><rect x="26" y="266" width="8" height="8" transform="rotate(0,30,270)"/><rect x="26" y="274" width="8" height="8" transform="rotate(0,30,278)"/><rect x="34" y="258" width="8" height="8" transform="rotate(0,38,262)"/><rect x="34" y="266" width="8" height="8" transform="rotate(0,38,270)"/><rect x="34" y="274" width="8" height="8" transform="rotate(0,38,278)"/></clipPath></defs><rect x="0" y="0" height="300" width="300" clip-path="url('#clip-path-background-color')" fill="#fff"/><rect x="0" y="0" height="300" width="300" clip-path="url('#clip-path-dot-color')" fill="#000000"/></svg>